<svg version="1.2" xmlns="http://www.w3.org/2000/svg" viewBox="0 0 1500 474" width="1500" height="474"><style>.a{fill:#242d4f}.b{fill:#526ccc}.c{fill:#d576e3}.d{fill:#ff8453}.e{fill:#2a2e51}.f{fill:#6770e5}.g{fill:#3d5091}.h{fill:#a9bdf7}</style><path fill-rule="evenodd" class="a" d="m778.3 134.6q0 13.4-5 24.9-5 11.6-13.7 20.3-8.6 8.6-20.2 13.6-11.5 5-24.9 5h-85.1v85.1h-42.6v-212.7h127.7q13 0 24.8 5 11.7 5 20.3 13.7 8.7 8.6 13.7 20.3 5 11.8 5 24.8zm-42.5 0q0-8.8-6.3-15-6.2-6.3-15-6.3h-85.1v42.6h85.1q8.8 0 15-6.2 6.3-6.3 6.3-15.1z"/><path fill-rule="evenodd" class="a" d="m1015.4 283.5h-42.6v-42.5h-106.3v42.5h-42.6v-148.9q0-14 4.7-25.7 4.7-11.7 13.2-20.2 8.5-8.5 20.2-13.2 11.7-4.7 25.7-4.7h63.9q13.6 0 25.3 4.9 11.7 4.8 20.2 13.3 8.6 8.5 13.4 20.2 4.9 11.7 4.9 25.4zm-42.6-85.1v-63.8q0-21.3-21.2-21.3h-63.9q-21.2 0-21.2 21.3v63.8z"/><path fill-rule="evenodd" class="a" d="m1252.5 283.5h-42.6v-63.8q0-9.7-5.8-15.5-5.8-5.8-15.5-5.8h-85.1v85.1h-42.5v-212.7h127.6q13.1 0 24.8 5 11.7 5 20.4 13.7 8.6 8.6 13.6 20.3 5.1 11.8 5.1 24.8 0 24.3-16.2 42.3 7.9 8.8 12.1 19.9 4.1 11.1 4.1 22.9zm-42.6-148.9q0-8.8-6.2-15.1-6.3-6.2-15.1-6.2h-85.1v42.6h85.1q8.8 0 15.1-6.3 6.2-6.2 6.2-15z"/><path class="a" d="m1489.5 70.8l-70.5 70.5q8.8 9.7 20.1 21 11.2 11.2 21.1 23.8 9.9 12.7 16.7 26.2 6.8 13.5 6.8 27.5v43.1h-42.5v-43.1q0-4.3-0.9-8.5-0.9-4.3-3.4-7.6-2.4-3.4-5.4-6.1-3.1-2.7-5.8-5.8l-36.2-40.7-48.9 48.6v63.8h-42.6v-212.7h42.6v94.2l94.2-94.2z"/><path fill-rule="evenodd" class="b" d="m724.7 464.9h-31.5v-31.5h-78.8v31.5h-31.5v-110.3q0-10.4 3.5-19 3.5-8.7 9.8-15 6.3-6.3 14.9-9.8 8.7-3.5 19.1-3.5h47.2q10.2 0 18.8 3.6 8.7 3.6 15 9.9 6.3 6.3 9.9 15 3.6 8.7 3.6 18.8zm-31.5-63v-47.3q0-15.8-15.8-15.8h-47.2q-15.8 0-15.8 15.8v47.3z"/><path class="b" d="m758.5 464.9v-157.6h31.5v126.1h110.3v31.5z"/><path fill-rule="evenodd" class="b" d="m1075.9 464.9h-31.5v-31.5h-78.8v31.5h-31.5v-110.3q0-10.4 3.5-19 3.5-8.7 9.8-15 6.3-6.3 15-9.8 8.6-3.5 19-3.5h47.3q10.1 0 18.8 3.6 8.6 3.6 14.9 9.9 6.3 6.3 9.9 15 3.6 8.7 3.6 18.8zm-31.5-63v-47.3q0-15.8-15.7-15.8h-47.3q-15.8 0-15.8 15.8v47.3z"/><path fill-rule="evenodd" class="b" d="m1251.6 464.9h-31.6v-47.3q0-7.2-4.2-11.4-4.3-4.3-11.5-4.3h-63.1v63h-31.5v-157.6h94.6q9.7 0 18.3 3.7 8.7 3.7 15.1 10.2 6.4 6.4 10.1 15 3.8 8.7 3.8 18.4 0 18-12 31.3 5.9 6.5 8.9 14.7 3.1 8.3 3.1 17zm-31.6-110.3q0-6.5-4.6-11.1-4.6-4.6-11.1-4.6h-63.1v31.5h63.1q6.5 0 11.1-4.6 4.6-4.7 4.6-11.2z"/><path class="b" d="m1491.3 464.9h-31.5v-110.3q0-15.8-15.8-15.8h-23.4q-15.7 0-15.7 15.8v110.3h-31.5v-110.3q0-15.8-15.8-15.8h-25q-15.8 0-15.8 15.8v110.3h-31.5v-157.6h31.5v2.3q7.5-2.3 15.8-2.3h25q8.5 0 16.7 2.6 8.1 2.6 14.6 8.4 6.7-5.8 15-8.4 8.2-2.6 16.7-2.6h23.4q10.2 0 18.8 3.6 8.7 3.6 15 9.9 6.3 6.3 9.9 15 3.6 8.7 3.6 18.8z"/><path class="c" d="m8.9 379.5v88.1h99 48.4v-3.4c-58.3-11.3-109.7-41.8-147.4-84.7z"/><path class="d" d="m9.4 204.2c0-109 88.3-197.3 197.3-197.3 108.1 0 195.8 86.9 197.2 194.7-0.7-62.5-30.4-118-76.4-153.6-26.3-20.6-58-34.6-92.5-39.7-9.4-1.4-18.9-2.2-28.7-2.2l-0.1-0.2h-49.8-100.6c-25.9 0-46.9 21-46.9 46.9v326.7c37.7 42.9 89.1 73.4 147.4 84.7v-69.3c-84.5-22.2-146.9-99.2-146.9-190.7z"/><path class="e" d="m206.7 75.8c-71.9 0-130.2 58.3-130.2 130.2 0 54.1 32.9 100.4 79.8 120.1v-0.6l-20.6-36.2q-0.7-1.3-1.4-2.6-1-1.8-2.1-3.6c-20.2-35.6-16.4-78.4 6.3-109.5q-0.1-0.1-0.2-0.2c-11-19.5-4.2-44.3 15.3-55.4 6.3-3.6 13.2-5.3 20-5.3 14.1 0 27.8 7.4 35.3 20.6q0.1 0.1 0.2 0.2 4.5-0.4 9.1-0.4c35.2 0 69.4 18.4 88.1 51.3q1 1.8 1.9 3.6 0.8 1.3 1.6 2.6l23.6 41.6 0.8 0.5c1.8-8.6 2.7-17.5 2.7-26.7 0-71.9-58.3-130.2-130.2-130.2z"/><path class="f" d="m205.8 75.8c72.3-0.5 131.1 58 131.1 130.2 0 9.2-0.9 18.1-2.7 26.7l26.1 16.7q2.2 1.4 4 3.3l27.5 18.3q0.2-0.6 0.5-1.2l0.3 0.2c7.3-20.6 11.3-42.8 11.3-66q0-0.9 0-1.8 0-0.3 0-0.6c-1.4-107.8-89.1-194.7-197.2-194.7-86.2 0-159.5 55.3-186.3 132.4l-0.4-0.3c-7.3 20.7-11.3 42.9-11.3 66.1q0 0.9 0 1.8 0 0.3 0 0.6c1.2 90.6 63.5 166.5 147.6 188.3v-39.4-30.3c-46.9-19.7-79.8-66-79.8-120.1 0-71.7 57.6-129.7 129.3-130.2z"/><path class="d" d="m309.1 299.9c-21.5 7.3-48.5 19.7-73.4 40.6 1.9 23.7 21.7 42.4 45.9 42.4 25.4 0 46.1-20.6 46.1-46.1 0-15.1-7.3-28.5-18.6-36.9z"/><path class="a" d="m9.2 379.5v88.1h98.9 48.3v-3.4c-58.2-11.3-109.6-41.8-147.2-84.7z"/><path class="g" d="m9.7 204.4c0-108.9 88.2-197.2 197.1-197.2 108 0 195.7 86.9 197.1 194.6-0.7-62.5-30.4-117.9-76.3-153.5-26.3-20.6-58-34.6-92.5-39.7-9.4-1.4-18.9-2.2-28.6-2.2l-0.2-0.1h-49.8-100.5c-25.8 0-46.8 20.9-46.8 46.8v326.4c37.6 42.9 89 73.4 147.2 84.7v-69.2c-84.4-22.3-146.7-99.2-146.7-190.6z"/><path class="h" d="m135.9 289.4q-0.7-1.3-1.4-2.6-1.1-1.7-2.1-3.6c-20.2-35.6-16.4-78.3 6.2-109.4q0-0.1-0.1-0.2c-11.1-19.5-4.2-44.3 15.2-55.3 19.5-11.1 44.3-4.2 55.3 15.2q0.1 0.2 0.2 0.3c38.3-3.5 76.9 15.1 97.1 50.8q1 1.8 2 3.6 0.8 1.3 1.5 2.6l23.7 41.6 0.7 0.5c1.8-8.6 2.8-17.6 2.8-26.7 0-71.9-58.3-130.1-130.2-130.1-71.9 0-130.1 58.2-130.1 130.1 0 54 32.9 100.4 79.7 120v-0.6z"/><path class="b" d="m205.9 76.1c72.3-0.5 131.1 57.9 131.1 130.1 0 9.1-1 18.1-2.8 26.7l26.1 16.6q2.2 1.5 4 3.3l27.5 18.3q0.2-0.6 0.4-1.2l0.4 0.3c7.3-20.7 11.3-42.9 11.3-66q0-0.9 0-1.8 0-0.3 0-0.6c-1.4-107.7-89.1-194.6-197.1-194.6-86.1 0-159.4 55.3-186.2 132.3l-0.3-0.2c-7.4 20.6-11.4 42.8-11.4 66q0 0.9 0 1.8 0 0.3 0 0.6c1.2 90.6 63.5 166.4 147.5 188.2v-39.5-30.2c-46.8-19.6-79.7-66-79.7-120 0-71.7 57.5-129.6 129.2-130.1z"/><path class="h" d="m309.2 300c-21.5 7.3-48.5 19.7-73.4 40.6 1.9 23.7 21.7 42.3 45.9 42.3 25.4 0 46-20.6 46-46 0-15.1-7.3-28.5-18.5-36.9z"/></svg>