<?xml version="1.0" encoding="UTF-8"?>
<svg version="1.1" xmlns="http://www.w3.org/2000/svg" width="500" height="500">
<path d="M0 0 C3.77898297 0.71980628 5.03831265 2.67269058 7.625 5.5 C9.74536519 7.34345182 11.89269352 9.15014746 14.05078125 10.94921875 C14.57027344 11.46097656 15.08976562 11.97273437 15.625 12.5 C15.625 13.16 15.625 13.82 15.625 14.5 C16.285 14.5 16.945 14.5 17.625 14.5 C17.625 15.16 17.625 15.82 17.625 16.5 C18.285 16.5 18.945 16.5 19.625 16.5 C20.0588501 16.98968262 20.4927002 17.47936523 20.93969727 17.98388672 C23.22248063 20.03749887 24.55751663 19.83383571 27.58984375 19.7578125 C29.03713867 19.73654297 29.03713867 19.73654297 30.51367188 19.71484375 C31.51978516 19.68519531 32.52589844 19.65554687 33.5625 19.625 C35.55068973 19.58152833 37.53897789 19.5423005 39.52734375 19.5078125 C40.40898193 19.48348145 41.29062012 19.45915039 42.19897461 19.43408203 C44.50679746 19.4967883 46.41999165 19.84365223 48.625 20.5 C48.65005615 21.27190674 48.6751123 22.04381348 48.70092773 22.83911133 C48.81684007 26.33041181 48.93958824 29.82143922 49.0625 33.3125 C49.10181641 34.52744141 49.14113281 35.74238281 49.18164062 36.99414062 C49.22353516 38.15751953 49.26542969 39.32089844 49.30859375 40.51953125 C49.34525146 41.59307861 49.38190918 42.66662598 49.41967773 43.77270508 C49.52041847 46.59311553 49.52041847 46.59311553 50.625 49.5 C51.285 49.5 51.945 49.5 52.625 49.5 C52.625 50.16 52.625 50.82 52.625 51.5 C53.285 51.5 53.945 51.5 54.625 51.5 C54.625 52.16 54.625 52.82 54.625 53.5 C55.285 53.5 55.945 53.5 56.625 53.5 C56.625 54.16 56.625 54.82 56.625 55.5 C57.285 55.5 57.945 55.5 58.625 55.5 C58.625 56.16 58.625 56.82 58.625 57.5 C59.285 57.5 59.945 57.5 60.625 57.5 C60.625 58.16 60.625 58.82 60.625 59.5 C61.285 59.5 61.945 59.5 62.625 59.5 C62.625 60.16 62.625 60.82 62.625 61.5 C63.24375 61.768125 63.8625 62.03625 64.5 62.3125 C66.625 63.5 66.625 63.5 68.625 66.5 C68.27894389 68.78397032 67.65795481 70.43409037 66.625 72.5 C65.965 72.5 65.305 72.5 64.625 72.5 C64.625 73.16 64.625 73.82 64.625 74.5 C63.965 74.5 63.305 74.5 62.625 74.5 C62.625 75.16 62.625 75.82 62.625 76.5 C61.965 76.5 61.305 76.5 60.625 76.5 C60.625 77.16 60.625 77.82 60.625 78.5 C59.965 78.5 59.305 78.5 58.625 78.5 C58.625 79.16 58.625 79.82 58.625 80.5 C57.965 80.5 57.305 80.5 56.625 80.5 C56.625 81.16 56.625 81.82 56.625 82.5 C55.965 82.5 55.305 82.5 54.625 82.5 C54.625 83.16 54.625 83.82 54.625 84.5 C53.965 84.5 53.305 84.5 52.625 84.5 C52.625 85.16 52.625 85.82 52.625 86.5 C51.965 86.5 51.305 86.5 50.625 86.5 C50.625 87.16 50.625 87.82 50.625 88.5 C49.965 88.5 49.305 88.5 48.625 88.5 C48.625 97.41 48.625 106.32 48.625 115.5 C45.88821275 116.86839363 43.58235576 116.71634818 40.5234375 116.81640625 C39.31171875 116.85830078 38.1 116.90019531 36.8515625 116.94335938 C35.58054687 116.98267578 34.30953125 117.02199219 33 117.0625 C31.081875 117.12727539 31.081875 117.12727539 29.125 117.19335938 C25.95844652 117.29969886 22.79181247 117.40172833 19.625 117.5 C19.625 118.16 19.625 118.82 19.625 119.5 C18.965 119.5 18.305 119.5 17.625 119.5 C17.625 120.16 17.625 120.82 17.625 121.5 C16.965 121.5 16.305 121.5 15.625 121.5 C15.625 122.16 15.625 122.82 15.625 123.5 C14.965 123.5 14.305 123.5 13.625 123.5 C13.625 124.16 13.625 124.82 13.625 125.5 C12.965 125.5 12.305 125.5 11.625 125.5 C11.625 126.16 11.625 126.82 11.625 127.5 C10.965 127.5 10.305 127.5 9.625 127.5 C9.625 128.16 9.625 128.82 9.625 129.5 C6.3928089 132.81102503 4.95182151 134.22477204 0.3671875 135.17578125 C-4.55031299 134.28775663 -5.68718149 132.28393582 -8.71655273 128.50390625 C-14.03083498 121.92112136 -18.51869302 117.23963758 -27.1953125 116.18359375 C-32.82166947 115.88698249 -38.41333675 116.0214612 -44.03100586 116.43554688 C-46.375 116.5 -46.375 116.5 -48.375 115.5 C-48.375 106.59 -48.375 97.68 -48.375 88.5 C-49.035 88.5 -49.695 88.5 -50.375 88.5 C-50.375 87.84 -50.375 87.18 -50.375 86.5 C-51.035 86.5 -51.695 86.5 -52.375 86.5 C-52.375 85.84 -52.375 85.18 -52.375 84.5 C-53.035 84.5 -53.695 84.5 -54.375 84.5 C-54.375 83.84 -54.375 83.18 -54.375 82.5 C-55.035 82.5 -55.695 82.5 -56.375 82.5 C-56.375 81.84 -56.375 81.18 -56.375 80.5 C-57.035 80.5 -57.695 80.5 -58.375 80.5 C-58.375 79.84 -58.375 79.18 -58.375 78.5 C-59.035 78.5 -59.695 78.5 -60.375 78.5 C-60.375 77.84 -60.375 77.18 -60.375 76.5 C-61.035 76.5 -61.695 76.5 -62.375 76.5 C-62.375 75.84 -62.375 75.18 -62.375 74.5 C-63.035 74.5 -63.695 74.5 -64.375 74.5 C-64.375 73.84 -64.375 73.18 -64.375 72.5 C-65.035 72.5 -65.695 72.5 -66.375 72.5 C-68.375 69.5 -68.375 69.5 -68.1875 67 C-67.3226037 64.3387806 -66.58518366 63.17973958 -64.375 61.5 C-63.715 61.5 -63.055 61.5 -62.375 61.5 C-62.375 60.84 -62.375 60.18 -62.375 59.5 C-61.715 59.5 -61.055 59.5 -60.375 59.5 C-60.375 58.84 -60.375 58.18 -60.375 57.5 C-59.715 57.5 -59.055 57.5 -58.375 57.5 C-58.375 56.84 -58.375 56.18 -58.375 55.5 C-57.715 55.5 -57.055 55.5 -56.375 55.5 C-56.1275 54.9225 -55.88 54.345 -55.625 53.75 C-54.19200012 51.17060021 -52.59075324 49.43878408 -50.375 47.5 C-49.715 47.5 -49.055 47.5 -48.375 47.5 C-48.375 38.59 -48.375 29.68 -48.375 20.5 C-45.33079933 19.48526644 -43.33622195 19.39777794 -40.15625 19.4375 C-38.63451172 19.44910156 -38.63451172 19.44910156 -37.08203125 19.4609375 C-34.94401042 19.48697917 -32.80598958 19.51302083 -30.66796875 19.5390625 C-29.65347656 19.54679687 -28.63898438 19.55453125 -27.59375 19.5625 C-26.2005957 19.57990234 -26.2005957 19.57990234 -24.77929688 19.59765625 C-22.22885411 19.60543245 -22.22885411 19.60543245 -19.375 18.5 C-19.375 17.84 -19.375 17.18 -19.375 16.5 C-18.715 16.5 -18.055 16.5 -17.375 16.5 C-17.375 15.84 -17.375 15.18 -17.375 14.5 C-16.715 14.5 -16.055 14.5 -15.375 14.5 C-15.375 13.84 -15.375 13.18 -15.375 12.5 C-14.715 12.5 -14.055 12.5 -13.375 12.5 C-13.375 11.84 -13.375 11.18 -13.375 10.5 C-11.73046875 8.87890625 -11.73046875 8.87890625 -9.5625 7.0625 C-6.56447616 4.53985369 -6.56447616 4.53985369 -3.76171875 1.80859375 C-2.375 0.5 -2.375 0.5 0 0 Z M-0.375 26.5 C-0.375 27.16 -0.375 27.82 -0.375 28.5 C-1.035 28.5 -1.695 28.5 -2.375 28.5 C-2.375 29.16 -2.375 29.82 -2.375 30.5 C-3.035 30.5 -3.695 30.5 -4.375 30.5 C-7.04166667 32.83333333 -7.04166667 32.83333333 -9.375 35.5 C-9.375 36.16 -9.375 36.82 -9.375 37.5 C-11.96757669 38.36419223 -13.71537707 38.67580932 -16.38671875 38.81640625 C-17.41091919 38.87356812 -17.41091919 38.87356812 -18.45581055 38.93188477 C-19.31601807 38.97498779 -20.17622559 39.01809082 -21.0625 39.0625 C-23.805625 39.206875 -26.54875 39.35125 -29.375 39.5 C-29.375 45.11 -29.375 50.72 -29.375 56.5 C-30.035 56.5 -30.695 56.5 -31.375 56.5 C-33.08182481 58.14873805 -33.08182481 58.14873805 -34.8125 60.25 C-35.40933594 60.94609375 -36.00617188 61.6421875 -36.62109375 62.359375 C-38.26581098 64.36673589 -39.83626108 66.41070312 -41.375 68.5 C-40.715 68.5 -40.055 68.5 -39.375 68.5 C-39.375 69.16 -39.375 69.82 -39.375 70.5 C-38.715 70.5 -38.055 70.5 -37.375 70.5 C-37.375 71.16 -37.375 71.82 -37.375 72.5 C-36.715 72.5 -36.055 72.5 -35.375 72.5 C-35.375 73.16 -35.375 73.82 -35.375 74.5 C-34.715 74.5 -34.055 74.5 -33.375 74.5 C-33.065625 75.139375 -32.75625 75.77875 -32.4375 76.4375 C-31.5404837 78.43610821 -31.5404837 78.43610821 -30.375 79.5 C-30.21917697 80.84015221 -30.12455858 82.18758903 -30.05859375 83.53515625 C-30.02048584 84.26355713 -29.98237793 84.99195801 -29.94311523 85.74243164 C-29.90001221 86.6730542 -29.85690918 87.60367676 -29.8125 88.5625 C-29.668125 91.511875 -29.52375 94.46125 -29.375 97.5 C-22.775 97.83 -16.175 98.16 -9.375 98.5 C-9.375 99.16 -9.375 99.82 -9.375 100.5 C-8.715 100.5 -8.055 100.5 -7.375 100.5 C-7.375 101.16 -7.375 101.82 -7.375 102.5 C-6.715 102.5 -6.055 102.5 -5.375 102.5 C-5.045 103.49 -4.715 104.48 -4.375 105.5 C-3.715 105.5 -3.055 105.5 -2.375 105.5 C-2.375 106.16 -2.375 106.82 -2.375 107.5 C-1.715 107.5 -1.055 107.5 -0.375 107.5 C-0.045 108.16 0.285 108.82 0.625 109.5 C0.625 108.84 0.625 108.18 0.625 107.5 C1.285 107.5 1.945 107.5 2.625 107.5 C2.625 106.84 2.625 106.18 2.625 105.5 C3.181875 105.273125 3.73875 105.04625 4.3125 104.8125 C6.81833722 103.57494396 6.81833722 103.57494396 8.6875 100.96875 C12.71728036 97.58201969 15.82750981 97.72379827 20.9375 97.6875 C21.77345703 97.66236328 22.60941406 97.63722656 23.47070312 97.61132812 C25.52163409 97.5527301 27.57336593 97.52343507 29.625 97.5 C29.56957031 96.32824219 29.51414062 95.15648437 29.45703125 93.94921875 C29.25396118 80.61191706 29.25396118 80.61191706 33.140625 75.92578125 C35.08071001 73.93480042 37.09965553 72.24703595 39.25390625 70.46875 C40.03636719 69.8190625 40.81882812 69.169375 41.625 68.5 C41.625 67.84 41.625 67.18 41.625 66.5 C40.965 66.5 40.305 66.5 39.625 66.5 C39.625 65.84 39.625 65.18 39.625 64.5 C38.965 64.5 38.305 64.5 37.625 64.5 C37.625 63.84 37.625 63.18 37.625 62.5 C36.965 62.5 36.305 62.5 35.625 62.5 C35.625 61.84 35.625 61.18 35.625 60.5 C34.965 60.5 34.305 60.5 33.625 60.5 C33.625 59.84 33.625 59.18 33.625 58.5 C32.965 58.5 32.305 58.5 31.625 58.5 C30.38740177 54.78720531 30.26891103 51.18693654 30.0625 47.3125 C29.99772461 46.18811523 29.99772461 46.18811523 29.93164062 45.04101562 C29.82577315 43.19421625 29.7249024 41.34713166 29.625 39.5 C28.44421875 39.47421875 27.2634375 39.4484375 26.046875 39.421875 C24.48954677 39.36558603 22.93225653 39.30823886 21.375 39.25 C20.20904297 39.22873047 20.20904297 39.22873047 19.01953125 39.20703125 C13.16556143 38.9568616 13.16556143 38.9568616 10.203125 36.453125 C9.42195313 35.48632812 9.42195313 35.48632812 8.625 34.5 C7.965 34.5 7.305 34.5 6.625 34.5 C6.625 33.84 6.625 33.18 6.625 32.5 C5.965 32.5 5.305 32.5 4.625 32.5 C4.625 31.84 4.625 31.18 4.625 30.5 C3.965 30.5 3.305 30.5 2.625 30.5 C2.625 29.84 2.625 29.18 2.625 28.5 C1.965 28.5 1.305 28.5 0.625 28.5 C0.13 27.51 0.13 27.51 -0.375 26.5 Z " fill="#FA231D" transform="translate(101.375,173.5)"/>
<path d="M0 0 C3.03440974 2.76131286 4.86432582 5.82568799 5.953125 9.77734375 C5.953125 11.42734375 5.953125 13.07734375 5.953125 14.77734375 C0.673125 15.43734375 -4.606875 16.09734375 -10.046875 16.77734375 C-10.706875 15.45734375 -11.366875 14.13734375 -12.046875 12.77734375 C-16.89324845 10.21161663 -22.52469634 7.6951871 -28.04296875 9.390625 C-29.74400543 10.1127955 -31.40075863 10.93748846 -33.046875 11.77734375 C-33.046875 13.75734375 -33.046875 15.73734375 -33.046875 17.77734375 C-26.85891276 19.59127863 -20.70535368 21.05756107 -14.359375 22.21484375 C-7.34979873 23.5896895 -1.79243175 24.95953551 3.328125 30.21484375 C7.34919941 36.55576878 7.7264598 42.40619053 6.953125 49.77734375 C5.44263701 54.7791393 2.10777304 57.83347674 -2.0703125 60.734375 C-11.77685676 65.85620764 -25.43489685 65.98200278 -36.046875 63.77734375 C-39.17152647 62.65520614 -42.11570341 61.3333978 -45.046875 59.77734375 C-45.046875 59.11734375 -45.046875 58.45734375 -45.046875 57.77734375 C-45.913125 57.49890625 -45.913125 57.49890625 -46.796875 57.21484375 C-50.02115875 55.15488469 -51.70510451 52.3387452 -53.046875 48.77734375 C-53.15625 46.046875 -53.15625 46.046875 -53.046875 43.77734375 C-51.13175228 43.27146228 -49.21470578 42.77285984 -47.296875 42.27734375 C-46.22953125 41.99890625 -45.1621875 41.72046875 -44.0625 41.43359375 C-41.046875 40.77734375 -41.046875 40.77734375 -37.046875 40.77734375 C-36.02075551 42.42805771 -35.02379357 44.09704381 -34.046875 45.77734375 C-29.74601708 49.42655653 -24.53342689 49.95625305 -19.046875 49.77734375 C-16.4266269 49.04794844 -14.45708008 48.08723782 -12.046875 46.77734375 C-12.376875 45.12734375 -12.706875 43.47734375 -13.046875 41.77734375 C-19.57892268 39.40205368 -26.14025828 37.75227142 -32.92944336 36.31152344 C-37.34624453 35.3330508 -41.0518653 33.99190031 -45.046875 31.77734375 C-45.046875 31.11734375 -45.046875 30.45734375 -45.046875 29.77734375 C-45.665625 29.52984375 -46.284375 29.28234375 -46.921875 29.02734375 C-49.49452101 27.51402257 -49.92317329 26.50496157 -51.046875 23.77734375 C-52.39463306 17.38636196 -52.29307996 11.90335729 -50.046875 5.77734375 C-45.69075142 -0.69461129 -40.08640974 -4.25197942 -32.4765625 -5.91015625 C-20.85640757 -7.40470994 -9.70703425 -6.9408689 0 0 Z " fill="#2F2F2F" transform="translate(235.046875,207.22265625)"/>
<path d="M0 0 C5.61 0 11.22 0 17 0 C18.46858473 2.93716946 18.12734295 5.54147244 18.12939453 8.82055664 C18.13114685 9.52149948 18.13289917 10.22244232 18.13470459 10.94462585 C18.13911366 13.26649434 18.13618875 15.58828696 18.1328125 17.91015625 C18.13348573 19.5191601 18.13445592 21.12816386 18.13571167 22.73716736 C18.1371873 26.11067675 18.13503812 29.48415969 18.13037109 32.85766602 C18.12466931 37.19132876 18.1279565 41.52492964 18.13394356 45.85859013 C18.13754891 49.18102997 18.13641079 52.50345503 18.13381577 55.82589531 C18.13314666 57.42436162 18.13397435 59.02282926 18.13629532 60.62129402 C18.13882191 62.85051175 18.1349814 65.07962778 18.12939453 67.30883789 C18.12859894 68.57965714 18.12780334 69.85047638 18.12698364 71.1598053 C18 74 18 74 17 75 C14.17583618 75.12663091 11.38705207 75.18520548 8.5625 75.1875 C7.77294922 75.19974609 6.98339844 75.21199219 6.16992188 75.22460938 C4.11192565 75.22987279 2.05437991 75.12206285 0 75 C-0.99 74.01 -0.99 74.01 -2 73 C-2.99 73.66 -3.98 74.32 -5 75 C-12.9707223 77.34433009 -20.60314359 76.29401204 -27.875 72.5 C-28.57625 72.005 -29.2775 71.51 -30 71 C-30 70.34 -30 69.68 -30 69 C-30.66 69 -31.32 69 -32 69 C-37.58548417 60.06322534 -39.45874163 50.98535291 -37.546875 40.51953125 C-37.08731742 38.66488816 -36.55221012 36.82919604 -36 35 C-35.34 35 -34.68 35 -34 35 C-34 33.68 -34 32.36 -34 31 C-33.34 31 -32.68 31 -32 31 C-31.74089844 30.39542969 -31.48179687 29.79085937 -31.21484375 29.16796875 C-29.10463816 25.40216777 -25.88843712 23.69528296 -22 22 C-14.83825169 20.28492239 -9.61085342 20.9306752 -3 24 C-2.01 24.33 -1.02 24.66 0 25 C0 16.75 0 8.5 0 0 Z M-16 37 C-19.4528928 40.63953566 -20.30736476 43.61769312 -20.5 48.5 C-20.30736476 53.38230688 -19.4528928 56.36046434 -16 60 C-13.03904533 61.79215677 -11.39720179 62.01621232 -7.9375 61.875 C-4.32969284 60.80033404 -3.13275777 60.12296673 -1 57 C1.56384729 49.97783697 1.02915821 44.74231988 -2 38 C-2.66 38 -3.32 38 -4 38 C-4 37.34 -4 36.68 -4 36 C-10.26063436 34.7649168 -10.26063436 34.7649168 -16 37 Z " fill="#2F2F2F" transform="translate(446,196)"/>
<path d="M0 0 C0.33 -1.32 0.66 -2.64 1 -4 C6.28 -4 11.56 -4 17 -4 C17 19.76 17 43.52 17 68 C11.72 68 6.44 68 1 68 C1 60.41 1 52.82 1 45 C0.34 45 -0.32 45 -1 45 C-1 45.66 -1 46.32 -1 47 C-9.21075277 50.51889405 -15.34045182 51.10436633 -24 48 C-29.99936711 45.51245754 -33.18940856 39.62118288 -36 34 C-37.17063952 24.93404727 -38.09192816 15.45665152 -34 7 C-33.34 7 -32.68 7 -32 7 C-31.89816406 6.40445313 -31.79632813 5.80890625 -31.69140625 5.1953125 C-30.45453263 1.26806405 -27.34396065 -0.79013453 -24 -3 C-15.89654586 -6.70013092 -6.80937083 -5.55501305 0 0 Z M-15 10 C-15 10.66 -15 11.32 -15 12 C-15.66 12 -16.32 12 -17 12 C-19.40668303 16.91364452 -20.60981144 20.41006182 -20 26 C-18.57683266 29.5240334 -17.16027003 32.77610627 -14 35 C-10.80880688 35.90185893 -8.62250017 36.13339289 -5.375 35.4375 C-1.94486737 33.36136709 -0.72779129 31.64755938 1 28 C1.78295585 22.67748193 1.60738492 18.38483762 -0.5625 13.4375 C-4.78163254 9.21836746 -9.32646504 8.28074698 -15 10 Z " fill="#3A3A3A" transform="translate(280,222)"/>
<path d="M0 0 C4.25623786 4.7990624 5.69289413 9.30226248 5.88671875 15.6015625 C5.94472656 17.26928711 5.94472656 17.26928711 6.00390625 18.97070312 C6.03484375 20.12119141 6.06578125 21.27167969 6.09765625 22.45703125 C6.15566406 24.21176758 6.15566406 24.21176758 6.21484375 26.00195312 C6.30890755 28.88265689 6.39455502 31.76335779 6.47265625 34.64453125 C7.79265625 35.30453125 9.11265625 35.96453125 10.47265625 36.64453125 C10.14265625 40.60453125 9.81265625 44.56453125 9.47265625 48.64453125 C2.87081797 50.04917769 -3.26548102 49.71302957 -9.08984375 46.01953125 C-9.56421875 45.56578125 -10.03859375 45.11203125 -10.52734375 44.64453125 C-11.41421875 45.28390625 -12.30109375 45.92328125 -13.21484375 46.58203125 C-18.99545547 50.18128005 -24.85521862 50.09289806 -31.52734375 49.64453125 C-34.43630733 48.86534458 -36.85174014 47.98233305 -39.52734375 46.64453125 C-39.52734375 45.98453125 -39.52734375 45.32453125 -39.52734375 44.64453125 C-40.18734375 44.64453125 -40.84734375 44.64453125 -41.52734375 44.64453125 C-41.52734375 43.98453125 -41.52734375 43.32453125 -41.52734375 42.64453125 C-42.18734375 42.64453125 -42.84734375 42.64453125 -43.52734375 42.64453125 C-46.00156786 38.28753102 -46.06540998 34.5554532 -45.52734375 29.64453125 C-43.76930053 24.46807067 -41.33368764 22.19483617 -36.52734375 19.64453125 C-35.20734375 19.64453125 -33.88734375 19.64453125 -32.52734375 19.64453125 C-32.19734375 18.98453125 -31.86734375 18.32453125 -31.52734375 17.64453125 C-29.10985125 17.16162893 -26.7817559 16.80191351 -24.33984375 16.51953125 C-23.67919922 16.43316406 -23.01855469 16.34679687 -22.33789062 16.2578125 C-18.37909057 15.76540499 -14.51423566 15.55772489 -10.52734375 15.64453125 C-11.18734375 13.99453125 -11.84734375 12.34453125 -12.52734375 10.64453125 C-17.75547977 9.65259938 -17.75547977 9.65259938 -22.90234375 10.33203125 C-24.83253349 11.89103065 -25.48567498 13.42079488 -26.52734375 15.64453125 C-28.25680028 15.50217668 -29.98590029 15.35548743 -31.71484375 15.20703125 C-33.15923828 15.08521484 -33.15923828 15.08521484 -34.6328125 14.9609375 C-37.31383977 14.66786974 -39.89364235 14.21749371 -42.52734375 13.64453125 C-42.25667049 8.41151491 -41.87597055 4.94462789 -38.109375 0.9609375 C-28.60497916 -6.94765855 -9.70389432 -8.61189598 0 0 Z M-11.52734375 25.64453125 C-13.61308221 25.87360079 -15.69598016 26.12863017 -17.77734375 26.39453125 C-19.51757812 26.60335937 -19.51757812 26.60335937 -21.29296875 26.81640625 C-24.8737947 27.73323608 -26.21448893 28.82788627 -28.52734375 31.64453125 C-27.88754526 33.67694852 -27.88754526 33.67694852 -26.52734375 35.64453125 C-22.20460036 37.37362861 -18.73956397 36.32941934 -14.52734375 34.64453125 C-11.94716052 32.42146722 -11.94716052 32.42146722 -10.52734375 29.64453125 C-10.88000512 27.51356776 -10.88000512 27.51356776 -11.52734375 25.64453125 Z " fill="#2E2E2E" transform="translate(399.52734375,222.35546875)"/>
<path d="M0 0 C2.64590014 -0.02684679 5.29153096 -0.04676357 7.9375 -0.0625 C8.69224609 -0.07087891 9.44699219 -0.07925781 10.22460938 -0.08789062 C12.14994313 -0.09652441 14.07535581 -0.05224333 16 0 C17.96363252 1.96363252 17.23119007 5.74097143 17.28125 8.4296875 C17.30886414 9.54889084 17.30886414 9.54889084 17.33703613 10.69070435 C17.39595946 13.08538711 17.44867821 15.48014297 17.5 17.875 C17.56766076 21.01837997 17.64139723 24.16153286 17.71875 27.3046875 C17.73232544 28.02977509 17.74590088 28.75486267 17.7598877 29.50192261 C17.83599347 32.58507745 18.01779341 35.05338022 19 38 C20.60332791 38.08121924 22.20784026 38.13929134 23.8125 38.1875 C24.70582031 38.22230469 25.59914063 38.25710938 26.51953125 38.29296875 C29.03202016 38.2070405 29.03202016 38.2070405 30.76171875 36.67578125 C33.44621099 33.04282487 33.1919149 29.28297865 33.31640625 24.92578125 C33.33718735 24.2419487 33.35796844 23.55811615 33.37937927 22.8535614 C33.44466154 20.6733079 33.50366017 18.49293595 33.5625 16.3125 C33.60570553 14.83267014 33.64932047 13.35285217 33.69335938 11.87304688 C33.80032083 8.24882378 33.90164823 4.62446811 34 1 C38.77958622 -1.38979311 44.65626015 0 50 0 C50 17.49 50 34.98 50 53 C45.05 53 40.1 53 35 53 C35 52.01 35 51.02 35 50 C34.113125 50.474375 33.22625 50.94875 32.3125 51.4375 C26.01722693 54.40696843 19.55151856 54.90528905 12.8125 53.1875 C7.47548702 50.93409452 4.64946724 49.02713707 1.796875 44.01171875 C-0.2940771 38.73308967 -0.13581417 33.13185891 -0.09765625 27.5390625 C-0.0962413 26.74849457 -0.09482635 25.95792664 -0.09336853 25.1434021 C-0.08780504 22.63722834 -0.07525944 20.13114642 -0.0625 17.625 C-0.05748028 15.91797005 -0.0529182 14.21093868 -0.04882812 12.50390625 C-0.03784759 8.33590252 -0.02060839 4.16796679 0 0 Z " fill="#2E2E2E" transform="translate(301,218)"/>
<path d="M0 0 C4.95 0 9.9 0 15 0 C15 23.1 15 46.2 15 70 C10.38 70 5.76 70 1 70 C0.67 62.08 0.34 54.16 0 46 C-0.66 45.67 -1.32 45.34 -2 45 C-3.14249157 42.07425439 -3.75639347 39.12899052 -4 36 C-3.02616054 34.31791365 -2.02304948 32.65261839 -1 31 C-0.24212278 24.76645983 -0.43714089 20.2668352 -4 15 C-3.6875 12.1875 -3.6875 12.1875 -3 10 C-2.34 10 -1.68 10 -1 10 C-1.020625 9.2575 -1.04125 8.515 -1.0625 7.75 C-1.0065694 5.28905361 -0.67107309 3.34875583 0 1 C0 0.67 0 0.34 0 0 Z " fill="#272727" transform="translate(281,219)"/>
<path d="M0 0 C1.02611949 1.65071396 2.02308143 3.31970006 3 5 C6.98920842 8.07738935 11.16477781 8.93461206 16 10 C16 10.33 16 10.66 16 11 C13.69 11 11.38 11 9 11 C8.67 12.32 8.34 13.64 8 15 C6.68 14.34 5.36 13.68 4 13 C3.34 14.65 2.68 16.3 2 18 C1.01 18 0.02 18 -1 18 C-0.34 19.32 0.32 20.64 1 22 C-1.97 21.01 -4.94 20.02 -8 19 C-8 18.34 -8 17.68 -8 17 C-8.5775 16.814375 -9.155 16.62875 -9.75 16.4375 C-12.97428375 14.37754094 -14.65822951 11.56140145 -16 8 C-16.109375 5.26953125 -16.109375 5.26953125 -16 3 C-14.08487728 2.49411853 -12.16783078 1.99551609 -10.25 1.5 C-8.64898437 1.08234375 -8.64898437 1.08234375 -7.015625 0.65625 C-4 0 -4 0 0 0 Z " fill="#303030" transform="translate(198,248)"/>
<path d="M0 0 C4.95 0 9.9 0 15 0 C15 23.1 15 46.2 15 70 C10.38 70 5.76 70 1 70 C1 62.41 1 54.82 1 47 C1.33 47 1.66 47 2 47 C2 54.26 2 61.52 2 69 C5.96 69 9.92 69 14 69 C14 46.56 14 24.12 14 1 C11.36 1 8.72 1 6 1 C5.731875 1.598125 5.46375 2.19625 5.1875 2.8125 C4.01506533 4.97224808 2.80630718 6.35790256 1 8 C0.34 7.67 -0.32 7.34 -1 7 C-0.67 4.69 -0.34 2.38 0 0 Z " fill="#1A1A1A" transform="translate(281,219)"/>
<path d="M0 0 C0.99 0.495 0.99 0.495 2 1 C2 8.92 2 16.84 2 25 C3.85367188 25.04898437 5.70734375 25.09796875 7.6171875 25.1484375 C10.03647402 25.22345414 12.4557441 25.29900243 14.875 25.375 C16.70998047 25.42140625 16.70998047 25.42140625 18.58203125 25.46875 C19.74863281 25.50742187 20.91523437 25.54609375 22.1171875 25.5859375 C23.19597168 25.6173584 24.27475586 25.6487793 25.38623047 25.68115234 C28 26 28 26 30 28 C27.27343178 29.36328411 25.23219148 29.03049342 22.1875 28.9140625 C20.45113281 28.84832031 20.45113281 28.84832031 18.6796875 28.78125 C17.46539062 28.7296875 16.25109375 28.678125 15 28.625 C13.78570312 28.58117187 12.57140625 28.53734375 11.3203125 28.4921875 C2.25775575 28.12887788 2.25775575 28.12887788 0 27 C0 18.09 0 9.18 0 0 Z " fill="#E54541" transform="translate(53,262)"/>
<path d="M0 0 C0.74886475 0.00523682 1.49772949 0.01047363 2.26928711 0.01586914 C3.07817383 0.0190918 3.88706055 0.02231445 4.72045898 0.02563477 C5.5705957 0.03401367 6.42073242 0.04239258 7.29663086 0.05102539 C8.15063477 0.05553711 9.00463867 0.06004883 9.88452148 0.06469727 C12.00108749 0.07652166 14.11761771 0.0944577 16.23413086 0.11352539 C16.23413086 0.44352539 16.23413086 0.77352539 16.23413086 1.11352539 C10.62413086 1.11352539 5.01413086 1.11352539 -0.76586914 1.11352539 C-0.76586914 6.72352539 -0.76586914 12.33352539 -0.76586914 18.11352539 C-1.42586914 18.11352539 -2.08586914 18.11352539 -2.76586914 18.11352539 C-3.42586914 19.43352539 -4.08586914 20.75352539 -4.76586914 22.11352539 C-5.42586914 21.12352539 -6.08586914 20.13352539 -6.76586914 19.11352539 C-6.10586914 17.79352539 -5.44586914 16.47352539 -4.76586914 15.11352539 C-3.77586914 15.11352539 -2.78586914 15.11352539 -1.76586914 15.11352539 C-1.8496582 14.11450195 -1.93344727 13.11547852 -2.01977539 12.08618164 C-2.1725293 10.1506543 -2.1725293 10.1506543 -2.32836914 8.17602539 C-2.4327832 6.88825195 -2.53719727 5.60047852 -2.64477539 4.27368164 C-2.68473633 3.23083008 -2.72469727 2.18797852 -2.76586914 1.11352539 C-1.76586914 0.11352539 -1.76586914 0.11352539 0 0 Z " fill="#EF5F5D" transform="translate(72.765869140625,211.886474609375)"/>
<path d="M0 0 C0.66 0 1.32 0 2 0 C1.67 1.32 1.34 2.64 1 4 C0.34 4 -0.32 4 -1 4 C-1.28875 4.763125 -1.5775 5.52625 -1.875 6.3125 C-3 9 -3 9 -5 12 C-5.38499891 13.65549531 -5.72793135 15.3222433 -6 17 C-6.66 17 -7.32 17 -8 17 C-10 14 -10 14 -9.8125 11.5 C-8.9476037 8.8387806 -8.21018366 7.67973958 -6 6 C-5.34 6 -4.68 6 -4 6 C-4 5.34 -4 4.68 -4 4 C-3.34 4 -2.68 4 -2 4 C-2 3.34 -2 2.68 -2 2 C-1.34 2 -0.68 2 0 2 C0 1.34 0 0.68 0 0 Z " fill="#EB4E4C" transform="translate(43,229)"/>
<path d="M0 0 C1.32 0.33 2.64 0.66 4 1 C4 1.66 4 2.32 4 3 C3.34 3 2.68 3 2 3 C2 3.66 2 4.32 2 5 C1.34 5 0.68 5 0 5 C0 5.66 0 6.32 0 7 C-0.66 7 -1.32 7 -2 7 C-2 7.66 -2 8.32 -2 9 C-2.66 9 -3.32 9 -4 9 C-4 9.66 -4 10.32 -4 11 C-4.66 11 -5.32 11 -6 11 C-6.33 11.66 -6.66 12.32 -7 13 C-7 11.35 -7 9.7 -7 8 C-6.01 8 -5.02 8 -4 8 C-3.67 6.68 -3.34 5.36 -3 4 C-2.34 4 -1.68 4 -1 4 C-0.67 2.68 -0.34 1.36 0 0 Z " fill="#EA4141" transform="translate(158,249)"/>
<path d="M0 0 C0.33 0 0.66 0 1 0 C1.24199091 3.93159138 1.45693037 7.86364159 1.64697266 11.7980957 C1.74904942 13.79391409 1.87247369 15.78860322 1.99609375 17.78320312 C2.05410156 19.03681641 2.11210938 20.29042969 2.171875 21.58203125 C2.2347168 22.73936768 2.29755859 23.8967041 2.36230469 25.08911133 C2 28 2 28 0.17675781 29.96362305 C-2 31 -2 31 -5 30 C-3.625 28.5 -3.625 28.5 -2 27 C-1.34 27 -0.68 27 0 27 C0 18.09 0 9.18 0 0 Z " fill="#E67B79" transform="translate(53,194)"/>
<path d="M0 0 C3.78145277 0.7035261 5.23164393 2.63483459 7.6875 5.5 C8.0175 6.16 8.3475 6.82 8.6875 7.5 C6.0475 7.5 3.4075 7.5 0.6875 7.5 C1.0175 5.85 1.3475 4.2 1.6875 2.5 C-0.2925 2.83 -2.2725 3.16 -4.3125 3.5 C-2.3125 0.5 -2.3125 0.5 0 0 Z M-1.3125 7.5 C0.6875 8.5 0.6875 8.5 0.6875 8.5 Z " fill="#EB3835" transform="translate(101.3125,173.5)"/>
<path d="M0 0 C1.65 0 3.3 0 5 0 C5 3 5 3 3 5.1875 C2.34 5.785625 1.68 6.38375 1 7 C1.33 7.99 1.66 8.98 2 10 C2.66 10 3.32 10 4 10 C3.67 10.66 3.34 11.32 3 12 C2.01 12 1.02 12 0 12 C-0.92844389 7.66726186 -0.92844389 4.33273814 0 0 Z " fill="#F25355" transform="translate(60,234)"/>
<path d="M0 0 C1.60337726 2.25660504 2.76582217 4.53164435 4 7 C1.03 7 -1.94 7 -5 7 C-5 5.68 -5 4.36 -5 3 C-5.66 2.34 -6.32 1.68 -7 1 C-4 0 -4 0 0 0 Z " fill="#505050" transform="translate(198,248)"/>
<path d="M0 0 C1.4540625 0.0309375 1.4540625 0.0309375 2.9375 0.0625 C0.3125 4.9375 0.3125 4.9375 -3.0625 6.0625 C-3.0625 6.7225 -3.0625 7.3825 -3.0625 8.0625 C-4.0525 8.3925 -5.0425 8.7225 -6.0625 9.0625 C-6.0625 7.7425 -6.0625 6.4225 -6.0625 5.0625 C-5.0725 5.0625 -4.0825 5.0625 -3.0625 5.0625 C-3.3409375 4.1034375 -3.3409375 4.1034375 -3.625 3.125 C-3.769375 2.444375 -3.91375 1.76375 -4.0625 1.0625 C-3.0625 0.0625 -3.0625 0.0625 0 0 Z " fill="#EB3B3A" transform="translate(95.0625,202.9375)"/>
<path d="M0 0 C0.66 0 1.32 0 2 0 C1.835 0.639375 1.67 1.27875 1.5 1.9375 C0.95197416 5.29415827 0.96848064 8.42583301 1.0625 11.81640625 C0.99936388 14.02222429 0.61336857 15.88675358 0 18 C-0.99 17.67 -1.98 17.34 -3 17 C-2.69188262 14.54104382 -2.37871012 12.08291693 -2.0625 9.625 C-1.97548828 8.92632812 -1.88847656 8.22765625 -1.79882812 7.5078125 C-1.11328125 2.2265625 -1.11328125 2.2265625 0 0 Z " fill="#464646" transform="translate(260,236)"/>
<path d="M0 0 C0.99 0.33 1.98 0.66 3 1 C2.01 2.485 2.01 2.485 1 4 C1.31730524 7.63939932 1.31730524 7.63939932 2 11 C0.02 11.99 0.02 11.99 -2 13 C-2 9.37 -2 5.74 -2 2 C-1.34 2 -0.68 2 0 2 C0 1.34 0 0.68 0 0 Z " fill="#515151" transform="translate(410,237)"/>
<path d="M0 0 C0.33 0.99 0.66 1.98 1 3 C-0.28965176 4.37562854 -1.62689293 5.70766393 -3 7 C-3.66 7 -4.32 7 -5 7 C-5 12.61 -5 18.22 -5 24 C-5.33 24 -5.66 24 -6 24 C-6.16286586 21.12270306 -6.28124242 18.25469706 -6.375 15.375 C-6.42527344 14.56675781 -6.47554687 13.75851562 -6.52734375 12.92578125 C-6.67307052 6.95098351 -6.67307052 6.95098351 -4.63769531 4.07519531 C-2.9765625 2.4140625 -2.9765625 2.4140625 0 0 Z " fill="#DF5951" transform="translate(137,247)"/>
<path d="M0 0 C1 3 1 3 1 7 C2.4166747 8.7511573 2.4166747 8.7511573 4 10 C0 10 0 10 -1.75 8.625 C-3 7 -3 7 -3 5 C-3.66 5 -4.32 5 -5 5 C-5 4.34 -5 3.68 -5 3 C-3.68 3 -2.36 3 -1 3 C-0.67 2.01 -0.34 1.02 0 0 Z " fill="#EE3939" transform="translate(111,201)"/>
<path d="M0 0 C2.97 0.495 2.97 0.495 6 1 C6 1.66 6 2.32 6 3 C5.34 3 4.68 3 4 3 C4 3.66 4 4.32 4 5 C3.34 5 2.68 5 2 5 C2 5.66 2 6.32 2 7 C1.34 7 0.68 7 0 7 C0 7.66 0 8.32 0 9 C-0.66 8.67 -1.32 8.34 -2 8 C-1.67 6.68 -1.34 5.36 -1 4 C-0.34 4.33 0.32 4.66 1 5 C0.67 3.35 0.34 1.7 0 0 Z " fill="#F35D59" transform="translate(115,290)"/>
<path d="M0 0 C0.33 0.66 0.66 1.32 1 2 C1.639375 2.309375 2.27875 2.61875 2.9375 2.9375 C5 4 5 4 7 7 C6.64111965 9.96076291 6.15341979 10.84658021 4 13 C3.67 10.03 3.34 7.06 3 4 C2.01 4 1.02 4 0 4 C0 2.68 0 1.36 0 0 Z " fill="#DE5B58" transform="translate(163,233)"/>
<path d="M0 0 C0.66 0 1.32 0 2 0 C2.61875 0.94875 3.2375 1.8975 3.875 2.875 C5.87924473 5.82241872 6.74790731 6.83853833 10 8 C8.25 8.6875 8.25 8.6875 6 9 C3.75 7.75 3.75 7.75 2 6 C2 5.01 2 4.02 2 3 C1.34 3 0.68 3 0 3 C0 2.01 0 1.02 0 0 Z " fill="#4D4D4D" transform="translate(425,250)"/>
<path d="M0 0 C5.445 1.485 5.445 1.485 11 3 C8 4 8 4 4.4375 3.9375 C0.93385359 3.60338936 0.93385359 3.60338936 -1 6 C-0.67 4.02 -0.34 2.04 0 0 Z " fill="#515151" transform="translate(202,225)"/>
<path d="M0 0 C-1.75 2 -1.75 2 -4 4 C-5.32 4 -6.64 4 -8 4 C-7.25 2.0625 -7.25 2.0625 -6 0 C-3.40292416 -1.05506206 -2.5386068 -1.2693034 0 0 Z " fill="#F33E3D" transform="translate(53,225)"/>
<path d="M0 0 C2.31 0.33 4.62 0.66 7 1 C6.67 2.65 6.34 4.3 6 6 C5.34 6 4.68 6 4 6 C4 5.34 4 4.68 4 4 C3.34 4 2.68 4 2 4 C2 3.34 2 2.68 2 2 C1.34 2 0.68 2 0 2 C0 1.34 0 0.68 0 0 Z " fill="#ED443F" transform="translate(137,234)"/>
<path d="M0 0 C0.66 0.99 1.32 1.98 2 3 C1.3125 4.9375 1.3125 4.9375 0 7 C-2.625 7.75 -2.625 7.75 -5 8 C-3.625 6 -3.625 6 -2 4 C-1.34 4 -0.68 4 0 4 C0 2.68 0 1.36 0 0 Z " fill="#EC645F" transform="translate(53,217)"/>
<path d="M0 0 C1.98 0 3.96 0 6 0 C6.33 1.65 6.66 3.3 7 5 C6.34 5 5.68 5 5 5 C5 4.34 5 3.68 5 3 C3.35 3 1.7 3 0 3 C0 2.01 0 1.02 0 0 Z " fill="#EA4440" transform="translate(99,199)"/>
<path d="M0 0 C1.32 0.33 2.64 0.66 4 1 C3.34 1 2.68 1 2 1 C2.33 3.64 2.66 6.28 3 9 C0.90250005 6.64031256 0.03094296 5.45383006 -0.1875 2.25 C-0.125625 1.5075 -0.06375 0.765 0 0 Z " fill="#595959" transform="translate(182,251)"/>
<path d="M0 0 C0.66 0.33 1.32 0.66 2 1 C0.35 2.65 -1.3 4.3 -3 6 C-3.99 5.67 -4.98 5.34 -6 5 C-4.02 3.35 -2.04 1.7 0 0 Z " fill="#505050" transform="translate(366,220)"/>
<path d="M0 0 C1.32 1.32 2.64 2.64 4 4 C3.01 4 2.02 4 1 4 C0.67 4.99 0.34 5.98 0 7 C-1.32 6.67 -2.64 6.34 -4 6 C-3.01 5.34 -2.02 4.68 -1 4 C-0.27617533 1.94074861 -0.27617533 1.94074861 0 0 Z " fill="#515151" transform="translate(224,250)"/>
<path d="M0 0 C1.32 0.33 2.64 0.66 4 1 C4 2.65 4 4.3 4 6 C3.34 6 2.68 6 2 6 C2 5.34 2 4.68 2 4 C1.34 4 0.68 4 0 4 C0 2.68 0 1.36 0 0 Z " fill="#ED403C" transform="translate(43,250)"/>
<path d="M0 0 C1.98 0.495 1.98 0.495 4 1 C4 1.99 4 2.98 4 4 C2.35 4 0.7 4 -1 4 C-0.67 2.68 -0.34 1.36 0 0 Z " fill="#242424" transform="translate(427,229)"/>
</svg>
