<?xml version="1.0" encoding="UTF-8"?>
<svg version="1.1" xmlns="http://www.w3.org/2000/svg" width="500" height="500">
<path d="M0 0 C1.32 0 2.64 0 4 0 C4 0.66 4 1.32 4 2 C4.66 2 5.32 2 6 2 C6 2.66 6 3.32 6 4 C6.66 4 7.32 4 8 4 C8 4.66 8 5.32 8 6 C8.9590625 6.4021875 8.9590625 6.4021875 9.9375 6.8125 C12 8 12 8 13 11 C13.66 11 14.32 11 15 11 C15 11.66 15 12.32 15 13 C15.66 13 16.32 13 17 13 C17 13.66 17 14.32 17 15 C17.66 15 18.32 15 19 15 C19 15.66 19 16.32 19 17 C19.66 17 20.32 17 21 17 C22.65625 18.71484375 22.65625 18.71484375 24.5 20.9375 C26.88926999 23.92045179 26.88926999 23.92045179 30 26 C30 26.66 30 27.32 30 28 C30.66 28 31.32 28 32 28 C32 28.66 32 29.32 32 30 C32.66 30 33.32 30 34 30 C34 30.66 34 31.32 34 32 C34.66 32 35.32 32 36 32 C36 32.66 36 33.32 36 34 C36.99 34.33 37.98 34.66 39 35 C39 35.66 39 36.32 39 37 C39.66 37 40.32 37 41 37 C41 37.66 41 38.32 41 39 C41.66 39 42.32 39 43 39 C43 39.66 43 40.32 43 41 C43.66 41 44.32 41 45 41 C45 41.66 45 42.32 45 43 C45.66 43 46.32 43 47 43 C47 43.66 47 44.32 47 45 C47.66 45 48.32 45 49 45 C49 45.66 49 46.32 49 47 C49.66 47 50.32 47 51 47 C52.55078125 48.57421875 52.55078125 48.57421875 54.3125 50.6875 C55.52734478 52.13712378 56.75788001 53.57367785 58 55 C58.68499069 55.85756393 59.36998138 56.71512787 60.07572937 57.59867859 C64.03157534 60.84709805 66.7671859 60.71207735 71.73754883 60.65942383 C72.60634674 60.66990753 73.47514465 60.68039124 74.37026978 60.69119263 C77.23288786 60.71992131 80.09429495 60.71365372 82.95703125 60.70703125 C84.94530247 60.72014761 86.93356037 60.73545164 88.92179871 60.75285339 C94.14805116 60.79272341 99.3739552 60.80289516 104.6003418 60.80688477 C109.93614281 60.81621238 115.27173878 60.85362363 120.60742188 60.88867188 C131.07160499 60.9532682 141.53563496 60.98649156 152 61 C152.74089096 66.76620819 153.13771483 72.39886317 153.08178711 78.21020508 C153.07872055 78.97562622 153.07565399 79.74104736 153.07249451 80.52966309 C153.06540122 82.17304884 153.05604483 83.81642616 153.04459953 85.45978737 C153.02705884 88.06179495 153.01686429 90.66373994 153.00868225 93.26579285 C152.98434859 100.65731706 152.94849823 108.04875568 152.90405273 115.44018555 C152.87728447 119.97630451 152.86023633 124.51237604 152.84918404 129.04855919 C152.84297968 130.77295385 152.83298113 132.49733923 152.81910515 134.22168922 C152.79990396 136.62677719 152.79299586 139.03161333 152.78881836 141.43676758 C152.78005676 142.14695541 152.77129517 142.85714325 152.76226807 143.58885193 C152.76949895 147.23271549 152.99819899 149.90176017 155 153 C155.66 153 156.32 153 157 153 C157 153.66 157 154.32 157 155 C157.66 155 158.32 155 159 155 C159 155.66 159 156.32 159 157 C159.639375 157.268125 160.27875 157.53625 160.9375 157.8125 C163 159 163 159 164 162 C164.66 162 165.32 162 166 162 C166 162.66 166 163.32 166 164 C166.66 164 167.32 164 168 164 C168 164.66 168 165.32 168 166 C168.66 166 169.32 166 170 166 C170 166.66 170 167.32 170 168 C170.66 168 171.32 168 172 168 C172 168.66 172 169.32 172 170 C172.66 170 173.32 170 174 170 C174 170.66 174 171.32 174 172 C174.639375 172.268125 175.27875 172.53625 175.9375 172.8125 C178 174 178 174 179 177 C179.66 177 180.32 177 181 177 C181 177.66 181 178.32 181 179 C181.66 179 182.32 179 183 179 C183 179.66 183 180.32 183 181 C183.66 181 184.32 181 185 181 C185 181.66 185 182.32 185 183 C185.66 183 186.32 183 187 183 C187 183.66 187 184.32 187 185 C187.66 185 188.32 185 189 185 C189 185.66 189 186.32 189 187 C189.99 187.33 190.98 187.66 192 188 C192 188.66 192 189.32 192 190 C192.66 190 193.32 190 194 190 C194 190.66 194 191.32 194 192 C194.66 192 195.32 192 196 192 C196 192.66 196 193.32 196 194 C196.66 194 197.32 194 198 194 C198 194.66 198 195.32 198 196 C198.66 196 199.32 196 200 196 C200 196.66 200 197.32 200 198 C200.66 198 201.32 198 202 198 C202 198.66 202 199.32 202 200 C202.598125 200.268125 203.19625 200.53625 203.8125 200.8125 C205.99847854 201.99917406 207.41332594 203.09599113 209 205 C209 205.66 209 206.32 209 207 C209.66 207 210.32 207 211 207 C211 207.66 211 208.32 211 209 C211.66 209 212.32 209 213 209 C213 210.32 213 211.64 213 213 C212.34 213 211.68 213 211 213 C211 213.66 211 214.32 211 215 C210.34 215 209.68 215 209 215 C208.773125 215.556875 208.54625 216.11375 208.3125 216.6875 C206.62449964 219.66159588 204.53323483 221.72008865 202 224 C201.34 224 200.68 224 200 224 C200 224.66 200 225.32 200 226 C199.34 226 198.68 226 198 226 C198 226.66 198 227.32 198 228 C197.34 228 196.68 228 196 228 C196 228.66 196 229.32 196 230 C195.34 230 194.68 230 194 230 C193.731875 230.598125 193.46375 231.19625 193.1875 231.8125 C192.00082594 233.99847854 190.90400887 235.41332594 189 237 C188.34 237 187.68 237 187 237 C187 237.66 187 238.32 187 239 C186.34 239 185.68 239 185 239 C185 239.66 185 240.32 185 241 C184.34 241 183.68 241 183 241 C183 241.66 183 242.32 183 243 C182.34 243 181.68 243 181 243 C180.773125 243.556875 180.54625 244.11375 180.3125 244.6875 C178.62449964 247.66159588 176.53323483 249.72008865 174 252 C173.34 252 172.68 252 172 252 C172 252.66 172 253.32 172 254 C171.34 254 170.68 254 170 254 C170 254.66 170 255.32 170 256 C169.34 256 168.68 256 168 256 C167.7421875 256.58265625 167.484375 257.1653125 167.21875 257.765625 C165.90165983 260.1802903 164.44911616 261.81740177 162.5 263.75 C161.8915625 264.36359375 161.283125 264.9771875 160.65625 265.609375 C159 267 159 267 157 267 C157 267.66 157 268.32 157 269 C156.34 269 155.68 269 155 269 C151.34992871 279.95021386 152.80966709 294.02138605 152.68359375 305.53125 C152.66511272 306.9645229 152.6462725 308.39779121 152.6270752 309.83105469 C152.55956625 315.05398244 152.49891873 320.27699708 152.4375 325.5 C152.293125 337.215 152.14875 348.93 152 361 C107.45 361.495 107.45 361.495 62 362 C62 362.66 62 363.32 62 364 C61.34 364 60.68 364 60 364 C60 364.66 60 365.32 60 366 C59.34 366 58.68 366 58 366 C58 366.66 58 367.32 58 368 C57.34 368 56.68 368 56 368 C55.731875 368.598125 55.46375 369.19625 55.1875 369.8125 C54.00082594 371.99847854 52.90400887 373.41332594 51 375 C50.34 375 49.68 375 49 375 C49 375.66 49 376.32 49 377 C48.34 377 47.68 377 47 377 C47 377.66 47 378.32 47 379 C46.34 379 45.68 379 45 379 C45 379.66 45 380.32 45 381 C44.34 381 43.68 381 43 381 C43 381.66 43 382.32 43 383 C42.34 383 41.68 383 41 383 C40.731875 383.598125 40.46375 384.19625 40.1875 384.8125 C39.00082594 386.99847854 37.90400887 388.41332594 36 390 C35.34 390 34.68 390 34 390 C34 390.66 34 391.32 34 392 C33.34 392 32.68 392 32 392 C32 392.66 32 393.32 32 394 C31.34 394 30.68 394 30 394 C30 394.66 30 395.32 30 396 C29.34 396 28.68 396 28 396 C27.731875 396.598125 27.46375 397.19625 27.1875 397.8125 C26.00082594 399.99847854 24.90400887 401.41332594 23 403 C22.34 403 21.68 403 21 403 C21 403.66 21 404.32 21 405 C20.34 405 19.68 405 19 405 C19 405.66 19 406.32 19 407 C18.34 407 17.68 407 17 407 C17 407.66 17 408.32 17 409 C16.34 409 15.68 409 15 409 C14.6596875 409.8353125 14.6596875 409.8353125 14.3125 410.6875 C12.62449964 413.66159588 10.53323483 415.72008865 8 418 C7.34 418 6.68 418 6 418 C6 418.66 6 419.32 6 420 C5.34 420 4.68 420 4 420 C4 420.66 4 421.32 4 422 C2.68 422 1.36 422 0 422 C0 421.34 0 420.68 0 420 C-0.81210937 419.67515625 -0.81210937 419.67515625 -1.640625 419.34375 C-4.81645344 417.53500003 -7.20728081 415.08276201 -9.75 412.5 C-10.25660156 412.00113281 -10.76320312 411.50226563 -11.28515625 410.98828125 C-15 407.25341139 -15 407.25341139 -15 405 C-15.556875 404.773125 -16.11375 404.54625 -16.6875 404.3125 C-19.66159588 402.62449964 -21.72008865 400.53323483 -24 398 C-24 397.34 -24 396.68 -24 396 C-24.66 396 -25.32 396 -26 396 C-26 395.34 -26 394.68 -26 394 C-26.66 394 -27.32 394 -28 394 C-28 393.34 -28 392.68 -28 392 C-28.66 392 -29.32 392 -30 392 C-30 391.34 -30 390.68 -30 390 C-30.556875 389.773125 -31.11375 389.54625 -31.6875 389.3125 C-34.66159588 387.62449964 -36.72008865 385.53323483 -39 383 C-39 382.34 -39 381.68 -39 381 C-39.66 381 -40.32 381 -41 381 C-41 380.34 -41 379.68 -41 379 C-41.66 379 -42.32 379 -43 379 C-43 378.34 -43 377.68 -43 377 C-43.556875 376.773125 -44.11375 376.54625 -44.6875 376.3125 C-47.66159588 374.62449964 -49.72008865 372.53323483 -52 370 C-52 369.34 -52 368.68 -52 368 C-52.66 368 -53.32 368 -54 368 C-54 367.34 -54 366.68 -54 366 C-54.66 366 -55.32 366 -56 366 C-56.36294159 365.35093185 -56.72588318 364.70186371 -57.099823 364.03312683 C-58.9650912 361.60948554 -58.9650912 361.60948554 -62.69485474 361.48774719 C-64.26397087 361.4614216 -65.83354713 361.45718922 -67.40283203 361.4699707 C-68.25997803 361.46123932 -69.11712402 361.45250793 -70.00024414 361.44351196 C-72.83631189 361.41909343 -75.67165285 361.42254915 -78.5078125 361.42578125 C-80.47412363 361.41334292 -82.44042363 361.3990106 -84.40670776 361.38285828 C-89.58488245 361.34477315 -94.76286567 361.32963344 -99.94116211 361.32006836 C-108.23751581 361.30034695 -116.53372301 361.24362928 -124.82992172 361.19130516 C-127.73551451 361.17589948 -130.64103486 361.16875675 -133.54666138 361.16316223 C-135.31642697 361.15614951 -137.08619221 361.14904887 -138.85595703 361.1418457 C-139.67051361 361.14237442 -140.48507019 361.14290314 -141.3243103 361.14344788 C-146.88678378 361.11321622 -146.88678378 361.11321622 -148 360 C-148.10387784 357.31314336 -148.14361385 354.65115271 -148.1418457 351.96362305 C-148.14532013 351.12134155 -148.14879456 350.27906006 -148.15237427 349.41125488 C-148.15974533 347.57567192 -148.16508348 345.74007997 -148.16866493 343.9044857 C-148.17580859 341.000606 -148.19145938 338.09689744 -148.21000671 335.19306946 C-148.26257425 326.93448238 -148.31046251 318.67598708 -148.32592773 310.41723633 C-148.33599789 305.37142742 -148.36530013 300.32604545 -148.40724754 295.28040504 C-148.41957887 293.35510294 -148.42467492 291.42974057 -148.42244911 289.50440025 C-148.42010152 286.81065565 -148.44222132 284.1181394 -148.4699707 281.42456055 C-148.46336929 280.62699844 -148.45676788 279.82943634 -148.44996643 279.00770569 C-148.51183843 275.35480893 -148.63009104 273.43693748 -151.03312683 270.59846497 C-151.68219498 270.07097153 -152.33126312 269.54347809 -153 269 C-153 268.34 -153 267.68 -153 267 C-153.66 267 -154.32 267 -155 267 C-155 266.34 -155 265.68 -155 265 C-155.598125 264.731875 -156.19625 264.46375 -156.8125 264.1875 C-158.99847854 263.00082594 -160.41332594 261.90400887 -162 260 C-162 259.34 -162 258.68 -162 258 C-162.66 258 -163.32 258 -164 258 C-164 257.34 -164 256.68 -164 256 C-164.66 256 -165.32 256 -166 256 C-166 255.34 -166 254.68 -166 254 C-166.66 254 -167.32 254 -168 254 C-168 253.34 -168 252.68 -168 252 C-168.66 252 -169.32 252 -170 252 C-170 251.34 -170 250.68 -170 250 C-170.598125 249.731875 -171.19625 249.46375 -171.8125 249.1875 C-173.99847854 248.00082594 -175.41332594 246.90400887 -177 245 C-177 244.34 -177 243.68 -177 243 C-177.66 243 -178.32 243 -179 243 C-179 242.34 -179 241.68 -179 241 C-179.66 241 -180.32 241 -181 241 C-181 240.34 -181 239.68 -181 239 C-181.66 239 -182.32 239 -183 239 C-183 238.34 -183 237.68 -183 237 C-183.66 237 -184.32 237 -185 237 C-185 236.34 -185 235.68 -185 235 C-185.639375 234.731875 -186.27875 234.46375 -186.9375 234.1875 C-189 233 -189 233 -190 230 C-190.66 230 -191.32 230 -192 230 C-192 229.34 -192 228.68 -192 228 C-192.66 228 -193.32 228 -194 228 C-194 227.34 -194 226.68 -194 226 C-194.66 226 -195.32 226 -196 226 C-196 225.34 -196 224.68 -196 224 C-196.66 224 -197.32 224 -198 224 C-198 223.34 -198 222.68 -198 222 C-198.9590625 221.5978125 -198.9590625 221.5978125 -199.9375 221.1875 C-202 220 -202 220 -203 217 C-203.66 217 -204.32 217 -205 217 C-205 216.34 -205 215.68 -205 215 C-205.66 215 -206.32 215 -207 215 C-207 214.34 -207 213.68 -207 213 C-207.66 213 -208.32 213 -209 213 C-209 211.68 -209 210.36 -209 209 C-208.34 209 -207.68 209 -207 209 C-207 208.34 -207 207.68 -207 207 C-206.34 207 -205.68 207 -205 207 C-204.7421875 206.41734375 -204.484375 205.8346875 -204.21875 205.234375 C-202.90165983 202.8197097 -201.44911616 201.18259823 -199.5 199.25 C-198.58734375 198.32960937 -198.58734375 198.32960937 -197.65625 197.390625 C-196 196 -196 196 -194 196 C-194 195.34 -194 194.68 -194 194 C-193.34 194 -192.68 194 -192 194 C-191.773125 193.443125 -191.54625 192.88625 -191.3125 192.3125 C-189.62449964 189.33840412 -187.53323483 187.27991135 -185 185 C-184.34 185 -183.68 185 -183 185 C-183 184.34 -183 183.68 -183 183 C-182.34 183 -181.68 183 -181 183 C-181 182.34 -181 181.68 -181 181 C-180.34 181 -179.68 181 -179 181 C-179 180.34 -179 179.68 -179 179 C-178.34 179 -177.68 179 -177 179 C-176.773125 178.443125 -176.54625 177.88625 -176.3125 177.3125 C-174.62449964 174.33840412 -172.53323483 172.27991135 -170 170 C-169.34 170 -168.68 170 -168 170 C-168 169.34 -168 168.68 -168 168 C-167.34 168 -166.68 168 -166 168 C-166 167.34 -166 166.68 -166 166 C-165.34 166 -164.68 166 -164 166 C-163.773125 165.443125 -163.54625 164.88625 -163.3125 164.3125 C-161.62449964 161.33840412 -159.53323483 159.27991135 -157 157 C-156.34 157 -155.68 157 -155 157 C-155 156.34 -155 155.68 -155 155 C-154.34 155 -153.68 155 -153 155 C-153 154.34 -153 153.68 -153 153 C-152.34 153 -151.68 153 -151 153 C-151 152.34 -151 151.68 -151 151 C-150.34 151 -149.68 151 -149 151 C-148.98969254 149.88722183 -148.97938507 148.77444366 -148.96876526 147.62794495 C-148.87120754 137.16502082 -148.76849067 126.70215852 -148.66066074 116.23933506 C-148.60538561 110.85969196 -148.55195842 105.48004348 -148.50268555 100.1003418 C-148.45510952 94.91320329 -148.40276944 89.72613315 -148.34705925 84.53907585 C-148.32660495 82.55545684 -148.30789708 80.57181906 -148.29092598 78.58816719 C-148.26694977 75.81985784 -148.23688636 73.05167898 -148.20532227 70.28344727 C-148.1995668 69.45482681 -148.19381134 68.62620636 -148.18788147 67.7724762 C-148.11405216 62.11405216 -148.11405216 62.11405216 -147 61 C-144.27736186 60.89610602 -141.5792617 60.85638664 -138.85595703 60.8581543 C-138.00231567 60.85467987 -137.14867432 60.85120544 -136.26916504 60.84762573 C-134.40902488 60.8402549 -132.54887584 60.83491662 -130.68872452 60.83133507 C-127.7473148 60.82419326 -124.80607421 60.80854443 -121.86471558 60.78999329 C-113.49951488 60.73741302 -105.13440538 60.68952433 -96.76904297 60.67407227 C-91.65840218 60.66401113 -86.54818394 60.63473319 -81.43770981 60.59275246 C-79.48646104 60.58040941 -77.53515266 60.5753272 -75.58386612 60.57755089 C-72.85639346 60.57989429 -70.13014032 60.55781123 -67.40283203 60.5300293 C-66.59232391 60.53663071 -65.7818158 60.54323212 -64.94674683 60.55003357 C-62.44505495 60.55337163 -62.44505495 60.55337163 -59 60 C-57.06973414 58.09729597 -57.06973414 58.09729597 -56 56 C-55.34 56 -54.68 56 -54 56 C-53.61328125 55.12601563 -53.61328125 55.12601563 -53.21875 54.234375 C-51.90165983 51.8197097 -50.44911616 50.18259823 -48.5 48.25 C-47.8915625 47.63640625 -47.283125 47.0228125 -46.65625 46.390625 C-45 45 -45 45 -43 45 C-43 44.34 -43 43.68 -43 43 C-42.34 43 -41.68 43 -41 43 C-41 42.34 -41 41.68 -41 41 C-40.34 41 -39.68 41 -39 41 C-38.64421875 40.15743652 -38.64421875 40.15743652 -38.28125 39.29785156 C-36.70680643 36.47417342 -34.78315455 34.52385158 -32.5 32.234375 C-31.1696875 30.90019531 -31.1696875 30.90019531 -29.8125 29.5390625 C-28.884375 28.61867188 -27.95625 27.69828125 -27 26.75 C-26.071875 25.81414062 -25.14375 24.87828125 -24.1875 23.9140625 C-22.8571875 22.58761719 -22.8571875 22.58761719 -21.5 21.234375 C-20.6853125 20.42194336 -19.870625 19.60951172 -19.03125 18.77246094 C-17 17 -17 17 -15 17 C-15 16.34 -15 15.68 -15 15 C-14.34 15 -13.68 15 -13 15 C-12.64421875 14.15695313 -12.64421875 14.15695313 -12.28125 13.296875 C-10.71052303 10.48105958 -8.78528536 8.52044584 -6.5 6.25 C-5.30890625 5.05117188 -5.30890625 5.05117188 -4.09375 3.828125 C-2 2 -2 2 0 2 C0 1.34 0 0.68 0 0 Z M1 80 C-0.41863931 81.48965339 -0.41863931 81.48965339 -1.87426758 83.47241211 C-28.58734391 117.67745678 -28.58734391 117.67745678 -47.63487244 120.42292786 C-61.73655896 121.66077718 -75.97442417 120.73878831 -90 119 C-89.92814484 119.5796048 -89.85628967 120.15920959 -89.78225708 120.75637817 C-84.57632864 165.20516574 -84.57632864 165.20516574 -97.06726074 181.16650391 C-106.52248797 191.98186133 -117.56011871 201.34790824 -129 210 C-127.63701864 213.17511886 -126.24444438 214.86174436 -123.48413086 216.91772461 C-91.26825237 241.6819976 -91.26825237 241.6819976 -88.70942688 260.54695129 C-87.46771062 274.85638186 -88.95714841 288.54905656 -90 303 C-71.85 303.33 -53.7 303.66 -35 304 C-35 304.66 -35 305.32 -35 306 C-34.34 306 -33.68 306 -33 306 C-32.60290329 306.88507233 -32.60290329 306.88507233 -32.19778442 307.7880249 C-30.95890455 310.07589188 -29.67673262 311.56481646 -27.83544922 313.39160156 C-27.19493622 314.0319635 -26.55442322 314.67232544 -25.89450073 315.33209229 C-25.20486237 316.01140808 -24.515224 316.69072388 -23.8046875 317.390625 C-23.09724396 318.09523865 -22.38980042 318.79985229 -21.66091919 319.52581787 C-19.40360138 321.7719539 -17.13942367 324.01103009 -14.875 326.25 C-13.34199047 327.77297717 -11.80943285 329.29640939 -10.27734375 330.8203125 C-6.52345427 334.55216815 -2.76391086 338.27825351 1 342 C4.32302186 340.43622501 6.56184007 338.78646849 9 336 C9 335.34 9 334.68 9 334 C9.66 334 10.32 334 11 334 C11 333.34 11 332.68 11 332 C11.58265625 331.7421875 12.1653125 331.484375 12.765625 331.21875 C15.1802903 329.90165983 16.81740177 328.44911616 18.75 326.5 C19.36359375 325.8915625 19.9771875 325.283125 20.609375 324.65625 C22.21434088 323.10515723 22.21434088 323.10515723 22 321 C23.32 320.34 24.64 319.68 26 319 C26 318.34 26 317.68 26 317 C26.56203125 316.7628125 27.1240625 316.525625 27.703125 316.28125 C30.51894042 314.71052303 32.47955416 312.78528536 34.75 310.5 C35.54921875 309.7059375 36.3484375 308.911875 37.171875 308.09375 C39.21923609 306.21216538 39.21923609 306.21216538 39 304 C66.225 303.505 66.225 303.505 94 303 C94.33 284.85 94.66 266.7 95 248 C96.32 247.34 97.64 246.68 99 246 C100.95195837 244.36151777 100.95195837 244.36151777 102.75 242.5 C103.36359375 241.8915625 103.9771875 241.283125 104.609375 240.65625 C106.21434088 239.10515723 106.21434088 239.10515723 106 237 C106.54140625 236.7834375 107.0828125 236.566875 107.640625 236.34375 C110.81645344 234.53500003 113.20728081 232.08276201 115.75 229.5 C116.25660156 229.00113281 116.76320313 228.50226563 117.28515625 227.98828125 C120.12805599 225.46938363 120.12805599 225.46938363 121 222 C121.57234375 221.75507813 122.1446875 221.51015625 122.734375 221.2578125 C125.38024402 219.78889901 127.14853139 218.04651756 129.25 215.875 C129.95640625 215.15054688 130.6628125 214.42609375 131.390625 213.6796875 C131.92171875 213.12539062 132.4528125 212.57109375 133 212 C130.91009557 207.61921928 128.11287144 205.31825661 124.34986877 202.45072937 C96.47202212 181.12329075 96.47202212 181.12329075 93.25732422 165.16259766 C91.19909729 149.65661312 92.91215621 134.67300867 94 119 C75.85 118.67 57.7 118.34 39 118 C38.01 116.02 38.01 116.02 37 114 C35.48058888 112.18114789 35.48058888 112.18114789 33.68359375 110.42480469 C32.67244507 109.40419952 32.67244507 109.40419952 31.64086914 108.36297607 C30.91375732 107.63991272 30.18664551 106.91684937 29.4375 106.171875 C28.69040771 105.42286926 27.94331543 104.67386353 27.17358398 103.90216064 C25.59572081 102.32293796 24.01533501 100.74623226 22.43261719 99.171875 C20.00222035 96.75221054 17.58269939 94.32203811 15.1640625 91.890625 C13.63084948 90.35873303 12.09701648 88.82746128 10.5625 87.296875 C9.83538818 86.56571472 9.10827637 85.83455444 8.35913086 85.08123779 C7.34798218 84.07954559 7.34798218 84.07954559 6.31640625 83.05761719 C5.42610718 82.1697049 5.42610718 82.1697049 4.51782227 81.26385498 C3.07303081 79.78670451 3.07303081 79.78670451 1 80 Z " fill="#F91211" transform="translate(248,39)"/>
<path d="M0 0 C0.33 0.99 0.66 1.98 1 3 C0.34 3.99 -0.32 4.98 -1 6 C-1.66 6 -2.32 6 -3 6 C-3.33 6.99 -3.66 7.98 -4 9 C-4.66 9 -5.32 9 -6 9 C-6.33 9.99 -6.66 10.98 -7 12 C-9.0625 12.6875 -9.0625 12.6875 -11 13 C-11.061875 13.53625 -11.12375 14.0725 -11.1875 14.625 C-12.41179896 18.20372005 -14.38450273 20.25995524 -17 23 C-17.99 23 -18.98 23 -20 23 C-20 23.66 -20 24.32 -20 25 C-21.4609375 26.40234375 -21.4609375 26.40234375 -23.375 27.9375 C-25.83901524 29.91986617 -27.20466437 31.30699655 -29 34 C-31.8413085 34.28621789 -34.46282833 34.37811959 -37.30517578 34.34057617 C-38.17768919 34.34093778 -39.0502026 34.34129938 -39.94915581 34.34167194 C-42.78143917 34.33942767 -45.61313471 34.31655887 -48.4453125 34.29296875 C-50.19067093 34.28855949 -51.9360333 34.28549797 -53.68139648 34.28381348 C-60.16265804 34.26806642 -66.64383475 34.22618296 -73.125 34.1875 C-87.60375 34.125625 -102.0825 34.06375 -117 34 C-117 64.36 -117 94.72 -117 126 C-118.65 125.67 -120.3 125.34 -122 125 C-122 125.99 -122 126.98 -122 128 C-122.99 128.33 -123.98 128.66 -125 129 C-126.00642948 130.32848691 -127.00692179 131.66150329 -128 133 C-128.66 133 -129.32 133 -130 133 C-130.2475 133.5775 -130.495 134.155 -130.75 134.75 C-132.18299988 137.32939979 -133.78424676 139.06121592 -136 141 C-136.66 141 -137.32 141 -138 141 C-138 141.66 -138 142.32 -138 143 C-138.66 143 -139.32 143 -140 143 C-140.37125 143.804375 -140.37125 143.804375 -140.75 144.625 C-144.98850575 152.67816092 -144.98850575 152.67816092 -148.75 153.875 C-149.4925 153.91625 -150.235 153.9575 -151 154 C-151 154.99 -151 155.98 -151 157 C-151.66 157 -152.32 157 -153 157 C-153.99 158.98 -153.99 158.98 -155 161 C-155.66 161 -156.32 161 -157 161 C-156.67 161.99 -156.34 162.98 -156 164 C-157.76245222 165.1999038 -159.53526981 166.38459517 -161.3125 167.5625 C-162.29863281 168.22378906 -163.28476563 168.88507813 -164.30078125 169.56640625 C-165.19152344 170.03949219 -166.08226562 170.51257813 -167 171 C-167.99 170.67 -168.98 170.34 -170 170 C-168.625 168.5 -168.625 168.5 -167 167 C-166.34 167 -165.68 167 -165 167 C-165 166.34 -165 165.68 -165 165 C-164.34 165 -163.68 165 -163 165 C-162.773125 164.443125 -162.54625 163.88625 -162.3125 163.3125 C-160.62449964 160.33840412 -158.53323483 158.27991135 -156 156 C-155.34 156 -154.68 156 -154 156 C-154 155.34 -154 154.68 -154 154 C-153.34 154 -152.68 154 -152 154 C-152 153.34 -152 152.68 -152 152 C-151.34 152 -150.68 152 -150 152 C-150 151.34 -150 150.68 -150 150 C-149.34 150 -148.68 150 -148 150 C-147.773125 149.443125 -147.54625 148.88625 -147.3125 148.3125 C-145.62449964 145.33840412 -143.53323483 143.27991135 -141 141 C-140.34 141 -139.68 141 -139 141 C-139 140.34 -139 139.68 -139 139 C-138.34 139 -137.68 139 -137 139 C-137 138.34 -137 137.68 -137 137 C-136.34 137 -135.68 137 -135 137 C-134.773125 136.443125 -134.54625 135.88625 -134.3125 135.3125 C-132.62449964 132.33840412 -130.53323483 130.27991135 -128 128 C-127.34 128 -126.68 128 -126 128 C-126 127.34 -126 126.68 -126 126 C-125.34 126 -124.68 126 -124 126 C-124 125.34 -124 124.68 -124 124 C-123.34 124 -122.68 124 -122 124 C-122 123.34 -122 122.68 -122 122 C-121.34 122 -120.68 122 -120 122 C-119.98969254 120.88722183 -119.97938507 119.77444366 -119.96876526 118.62794495 C-119.87120754 108.16502082 -119.76849067 97.70215852 -119.66066074 87.23933506 C-119.60538561 81.85969196 -119.55195842 76.48004348 -119.50268555 71.1003418 C-119.45510952 65.91320329 -119.40276944 60.72613315 -119.34705925 55.53907585 C-119.32660495 53.55545684 -119.30789708 51.57181906 -119.29092598 49.58816719 C-119.26694977 46.81985784 -119.23688636 44.05167898 -119.20532227 41.28344727 C-119.1995668 40.45482681 -119.19381134 39.62620636 -119.18788147 38.7724762 C-119.11405216 33.11405216 -119.11405216 33.11405216 -118 32 C-115.27736186 31.89610602 -112.5792617 31.85638664 -109.85595703 31.8581543 C-109.00231567 31.85467987 -108.14867432 31.85120544 -107.26916504 31.84762573 C-105.40902488 31.8402549 -103.54887584 31.83491662 -101.68872452 31.83133507 C-98.7473148 31.82419326 -95.80607421 31.80854443 -92.86471558 31.78999329 C-84.49951488 31.73741302 -76.13440538 31.68952433 -67.76904297 31.67407227 C-62.65840218 31.66401113 -57.54818394 31.63473319 -52.43770981 31.59275246 C-50.48646104 31.58040941 -48.53515266 31.5753272 -46.58386612 31.57755089 C-43.85639346 31.57989429 -41.13014032 31.55781123 -38.40283203 31.5300293 C-37.59232391 31.53663071 -36.7818158 31.54323212 -35.94674683 31.55003357 C-33.44505495 31.55337163 -33.44505495 31.55337163 -30 31 C-28.06973414 29.09729597 -28.06973414 29.09729597 -27 27 C-26.34 27 -25.68 27 -25 27 C-24.61328125 26.12601563 -24.61328125 26.12601563 -24.21875 25.234375 C-22.90165983 22.8197097 -21.44911616 21.18259823 -19.5 19.25 C-18.8915625 18.63640625 -18.283125 18.0228125 -17.65625 17.390625 C-16 16 -16 16 -14 16 C-14 15.34 -14 14.68 -14 14 C-13.34 14 -12.68 14 -12 14 C-12 13.34 -12 12.68 -12 12 C-11.34 12 -10.68 12 -10 12 C-9.75507813 11.42765625 -9.51015625 10.8553125 -9.2578125 10.265625 C-7.78889901 7.61975598 -6.04651756 5.85146861 -3.875 3.75 C-3.15054688 3.04359375 -2.42609375 2.3371875 -1.6796875 1.609375 C-0.84824219 0.81273438 -0.84824219 0.81273438 0 0 Z " fill="#E66363" transform="translate(219,68)"/>
<path d="M0 0 C0.99 0.66 1.98 1.32 3 2 C3.28618725 4.84100433 3.37815744 7.46310581 3.34057617 10.30517578 C3.34101425 11.16378204 3.34145233 12.02238831 3.34190369 12.90701294 C3.33980874 15.75334178 3.31644467 18.59908619 3.29296875 21.4453125 C3.2873753 23.41543252 3.28310402 25.3855567 3.28010559 27.35568237 C3.26863705 32.5475003 3.23915262 37.73906746 3.20599365 42.93078613 C3.17533601 48.22595833 3.16160948 53.52117094 3.14648438 58.81640625 C3.11428482 69.21104783 3.06306426 79.60550308 3 90 C4.57734421 89.99000725 4.57734421 89.99000725 6.18655396 89.97981262 C16.10333326 89.91896048 26.02007462 89.87400762 35.93699837 89.84456348 C41.0352266 89.828917 46.13330392 89.80769717 51.23144531 89.77368164 C56.15273392 89.74105211 61.07387751 89.72313933 65.99526596 89.71536827 C67.8715226 89.70983123 69.74777143 89.69901872 71.62396622 89.68280983 C74.25485551 89.66098779 76.88514784 89.65803507 79.51611328 89.65942383 C80.2893544 89.648638 81.06259552 89.63785217 81.85926819 89.6267395 C86.63951426 89.65398903 89.98567631 90.36440919 94 93 C95.375 96.1875 95.375 96.1875 96 99 C96.66 99 97.32 99 98 99 C98 99.66 98 100.32 98 101 C99.65 101 101.3 101 103 101 C103.12375 101.969375 103.2475 102.93875 103.375 103.9375 C103.58125 104.948125 103.7875 105.95875 104 107 C104.66 107.33 105.32 107.66 106 108 C102 108 102 108 100.296875 106.7578125 C99.78640625 106.21898437 99.2759375 105.68015625 98.75 105.125 C98.22921875 104.59132813 97.7084375 104.05765625 97.171875 103.5078125 C96 102 96 102 96 100 C95.34 100 94.68 100 94 100 C94 99.34 94 98.68 94 98 C93.34 98 92.68 98 92 98 C91.63705841 97.35093185 91.27411682 96.70186371 90.900177 96.03312683 C89.0349088 93.60948554 89.0349088 93.60948554 85.30514526 93.48774719 C83.73602913 93.4614216 82.16645287 93.45718922 80.59716797 93.4699707 C79.74002197 93.46123932 78.88287598 93.45250793 77.99975586 93.44351196 C75.16368811 93.41909343 72.32834715 93.42254915 69.4921875 93.42578125 C67.52587637 93.41334292 65.55957637 93.3990106 63.59329224 93.38285828 C58.41511755 93.34477315 53.23713433 93.32963344 48.05883789 93.32006836 C39.76248419 93.30034695 31.46627699 93.24362928 23.17007828 93.19130516 C20.26448549 93.17589948 17.35896514 93.16875675 14.45333862 93.16316223 C12.68357303 93.15614951 10.91380779 93.14904887 9.14404297 93.1418457 C8.32948639 93.14237442 7.51492981 93.14290314 6.6756897 93.14344788 C1.11321622 93.11321622 1.11321622 93.11321622 0 92 C-0.11451627 89.31335201 -0.16484362 86.65136078 -0.17358398 83.96362305 C-0.1836145 82.70020081 -0.1836145 82.70020081 -0.19384766 81.41125488 C-0.2079329 79.57568009 -0.21981578 77.74008741 -0.22979546 75.9044857 C-0.24615631 73.0006146 -0.26939276 70.09687558 -0.29469299 67.19306946 C-0.36559896 58.934525 -0.42557847 50.67592577 -0.47680664 42.41723633 C-0.50858829 37.37153555 -0.54986548 32.3259846 -0.59700203 27.28040504 C-0.6130314 25.35509754 -0.62534864 23.42975546 -0.63390923 21.50440025 C-0.646055 18.81096561 -0.67020283 16.11788332 -0.69702148 13.42456055 C-0.69761063 12.62699844 -0.69819977 11.82943634 -0.69880676 11.00770569 C-0.74903548 7.20328393 -0.85254353 4.22527622 -3 1 C-2.01 0.67 -1.02 0.34 0 0 Z " fill="#EC2827" transform="translate(100,307)"/>
<path d="M0 0 C0.99 0 1.98 0 3 0 C2.67 0.99 2.34 1.98 2 3 C0.92908205 14.14349889 0.80611527 25.34564881 0.68359375 36.53125 C0.66511272 37.9645229 0.6462725 39.39779121 0.6270752 40.83105469 C0.55956625 46.05398244 0.49891873 51.27699708 0.4375 56.5 C0.293125 68.215 0.14875 79.93 0 92 C-44.55 92.495 -44.55 92.495 -90 93 C-90 93.66 -90 94.32 -90 95 C-90.66 95 -91.32 95 -92 95 C-92 95.66 -92 96.32 -92 97 C-92.66 97 -93.32 97 -94 97 C-94 97.66 -94 98.32 -94 99 C-94.66 99 -95.32 99 -96 99 C-96.2475 99.598125 -96.495 100.19625 -96.75 100.8125 C-98.16370012 103.28647521 -99.65055383 104.43370255 -102 106 C-102.33 105.01 -102.66 104.02 -103 103 C-102.01 103 -101.02 103 -100 103 C-99.896875 102.360625 -99.79375 101.72125 -99.6875 101.0625 C-99.460625 100.381875 -99.23375 99.70125 -99 99 C-97.515 98.505 -97.515 98.505 -96 98 C-94.72601972 95.94747621 -94.03822312 94.16722615 -93.5 91.8125 C-93.2525 90.9153125 -93.2525 90.9153125 -93 90 C-89.7709039 88.38545195 -86.24141342 88.87084219 -82.69482422 88.88647461 C-81.83621796 88.88632858 -80.97761169 88.88618256 -80.09298706 88.8860321 C-77.24686176 88.88673037 -74.40080141 88.89451875 -71.5546875 88.90234375 C-69.58456457 88.90420824 -67.61444118 88.90563199 -65.64431763 88.90663147 C-60.45260341 88.91045424 -55.26091706 88.92028249 -50.06921387 88.93133545 C-44.774011 88.94155472 -39.47880363 88.9461302 -34.18359375 88.95117188 C-23.78905024 88.96190496 -13.39452744 88.97897852 -3 89 C-2.99191315 87.94399597 -2.98382629 86.88799194 -2.97549438 85.79998779 C-2.89804343 75.85301231 -2.81030674 65.90617379 -2.71247292 55.95937729 C-2.66250565 50.84550444 -2.61617557 45.73165229 -2.578125 40.61767578 C-2.54127774 35.68333677 -2.49491917 30.74917077 -2.44193649 25.81497955 C-2.4233896 23.93154177 -2.40828273 22.04806689 -2.39665604 20.16457367 C-2.37979872 17.52848048 -2.35076489 14.89278378 -2.31884766 12.25683594 C-2.31668747 11.47640427 -2.31452728 10.6959726 -2.31230164 9.89189148 C-2.2539081 6.12207136 -2.11288288 3.1991606 0 0 Z " fill="#EF3738" transform="translate(400,308)"/>
<path d="M0 0 C1.1055189 0.93590504 2.20935453 1.87379858 3.3125 2.8125 C3.92738281 3.33457031 4.54226562 3.85664063 5.17578125 4.39453125 C5.77777344 4.92433594 6.37976563 5.45414062 7 6 C7.52560013 6.42074295 8.05120026 6.8414859 8.59272766 7.27497864 C10.52647831 9.64535223 10.36220663 11.1703369 10.34057617 14.20581055 C10.34034958 15.26668381 10.34012299 16.32755707 10.33988953 17.420578 C10.32440567 18.56440445 10.30892181 19.7082309 10.29296875 20.88671875 C10.28872391 22.05886429 10.28447906 23.23100983 10.28010559 24.43867493 C10.26329072 28.18851534 10.22563232 31.93782157 10.1875 35.6875 C10.17245684 38.22720579 10.1587678 40.76691999 10.14648438 43.30664062 C10.11337796 49.53794319 10.06315028 55.76893344 10 62 C10.65954681 61.99777939 11.31909363 61.99555878 11.99862671 61.99327087 C18.84380554 61.97120106 25.68897432 61.95608627 32.53417969 61.94506836 C35.09115001 61.94002983 37.64811743 61.93319893 40.20507812 61.92456055 C43.87370517 61.91247398 47.54229423 61.90676699 51.2109375 61.90234375 C52.35992523 61.89718246 53.50891296 61.89202118 54.69271851 61.88670349 C55.7536673 61.88662796 56.81461609 61.88655243 57.90771484 61.88647461 C58.84481293 61.884254 59.78191101 61.88203339 60.74740601 61.87974548 C63 62 63 62 65 63 C65 63.66 65 64.32 65 65 C65.66 65 66.32 65 67 65 C68.25415039 66.27539062 68.25415039 66.27539062 69.78515625 68.15625 C75.29244165 74.63305751 81.4088451 80.51465793 87.4375 86.5 C88.6584369 87.71591114 89.87914192 88.93205516 91.09960938 90.1484375 C94.06374013 93.10164966 97.03098958 96.05169398 100 99 C98.515 99.495 98.515 99.495 97 100 C96.34 98.68 95.68 97.36 95 96 C94.01 96 93.02 96 92 96 C89 92.66666667 89 92.66666667 89 90 C87.35 89.67 85.7 89.34 84 89 C84 87.68 84 86.36 84 85 C82.68 85 81.36 85 80 85 C78.09797357 83.53690275 77.13921563 82.29831921 76.125 80.125 C74.57107278 77.18980414 72.39738439 75.28587814 70 73 C67.66666667 70.66666667 65.33333333 68.33333333 63 66 C60.5813819 65.675468 60.5813819 65.675468 57.73999023 65.69702148 C56.64222763 65.68037949 55.54446503 65.66373749 54.41343689 65.64659119 C52.62903954 65.63396996 52.62903954 65.63396996 50.80859375 65.62109375 C49.59301285 65.60409927 48.37743195 65.5871048 47.12501526 65.56959534 C43.22923006 65.51630551 39.33345643 65.47609281 35.4375 65.4375 C31.53802784 65.3936534 27.63864096 65.34701302 23.73927307 65.29469299 C21.30878564 65.26260113 18.87822261 65.23575392 16.44761658 65.21446228 C15.35300613 65.20097244 14.25839569 65.1874826 13.13061523 65.17358398 C12.16179916 65.16407211 11.19298309 65.15456024 10.19480896 65.14476013 C8 65 8 65 7 64 C6.9064081 62.28134591 6.88255389 60.55884256 6.88647461 58.83764648 C6.88655014 57.73658066 6.88662567 56.63551483 6.88670349 55.50108337 C6.89186478 54.3031868 6.89702606 53.10529022 6.90234375 51.87109375 C6.9037587 50.65172623 6.90517365 49.4323587 6.90663147 48.17604065 C6.91225033 44.2631693 6.92480604 40.35035419 6.9375 36.4375 C6.94251257 33.79231853 6.9470759 31.14713617 6.95117188 28.50195312 C6.96222589 22.00128274 6.97898236 15.50064539 7 9 C6.01 8.67 5.02 8.34 4 8 C0 3.65714286 0 3.65714286 0 0 Z " fill="#F06969" transform="translate(148,280)"/>
<path d="M0 0 C0.495 1.485 0.495 1.485 1 3 C0.07421875 4.82421875 0.07421875 4.82421875 -1.3125 6.6875 C-1.76238281 7.31011719 -2.21226562 7.93273437 -2.67578125 8.57421875 C-3.11277344 9.04472656 -3.54976563 9.51523437 -4 10 C-4.66 10 -5.32 10 -6 10 C-6.4021875 10.9590625 -6.4021875 10.9590625 -6.8125 11.9375 C-8 14 -8 14 -11 15 C-11.01030746 15.68682358 -11.02061493 16.37364716 -11.03123474 17.08128357 C-11.13905595 24.20215857 -11.25367283 31.32290074 -11.37231445 38.44360352 C-11.4157418 41.10438265 -11.4574109 43.76519107 -11.49731445 46.42602539 C-11.55482872 50.24113815 -11.61857668 54.05610242 -11.68359375 57.87109375 C-11.70030624 59.06899033 -11.71701874 60.2668869 -11.73423767 61.50108337 C-11.75418289 62.6021492 -11.77412811 63.70321503 -11.79467773 64.83764648 C-11.81022202 65.81249496 -11.8257663 66.78734344 -11.84178162 67.79173279 C-12 70 -12 70 -13 71 C-15.79168196 71.14843064 -18.56151607 71.23532378 -21.35546875 71.28125 C-22.20869217 71.29965942 -23.06191559 71.31806885 -23.94099426 71.33703613 C-26.68975701 71.39596131 -29.43858793 71.44854656 -32.1875 71.5 C-39.12617542 71.63320862 -46.06311421 71.79316829 -53 72 C-53.72431213 72.01820801 -54.44862427 72.03641602 -55.19488525 72.05517578 C-57.12671394 72.10983447 -59.05762586 72.19453562 -60.98828125 72.28125 C-62.04184814 72.32314453 -63.09541504 72.36503906 -64.1809082 72.40820312 C-67.67623572 73.14195855 -69.3737026 74.63020645 -72 77 C-74.6875 78.8125 -74.6875 78.8125 -77 80 C-77.66 79.67 -78.32 79.34 -79 79 C-76.33333333 76.33333333 -73.66666667 73.66666667 -71 71 C-70.35535042 70.20483223 -70.35535042 70.20483223 -69.69767761 69.39360046 C-67.34831315 67.46503913 -65.80916901 67.63793941 -62.79418945 67.65942383 C-61.20287956 67.65976372 -61.20287956 67.65976372 -59.579422 67.66011047 C-57.86368233 67.68333626 -57.86368233 67.68333626 -56.11328125 67.70703125 C-54.35506294 67.71339851 -54.35506294 67.71339851 -52.56132507 67.71989441 C-48.81148466 67.73670928 -45.06217843 67.77436768 -41.3125 67.8125 C-38.77279421 67.82754316 -36.23308001 67.8412322 -33.69335938 67.85351562 C-27.46205681 67.88662204 -21.23106656 67.93684972 -15 68 C-15.01665459 67.02067253 -15.01665459 67.02067253 -15.03364563 66.02156067 C-15.14428563 59.22471805 -15.21968702 52.42813132 -15.2746582 45.63061523 C-15.29979839 43.0940512 -15.33391537 40.55755958 -15.37719727 38.02124023 C-15.43786661 34.37465549 -15.46621574 30.72902868 -15.48828125 27.08203125 C-15.51408768 25.94852737 -15.5398941 24.8150235 -15.56648254 23.64717102 C-15.56929897 15.73665845 -15.56929897 15.73665845 -12.58911133 11.88037109 C-11.73470459 11.25984863 -10.88029785 10.63932617 -10 10 C-8.18682003 7.94629615 -6.41672443 5.86187077 -4.6484375 3.76953125 C-3 2 -3 2 0 0 Z " fill="#EF6868" transform="translate(357,274)"/>
<path d="M0 0 C0.2475 0.61875 0.495 1.2375 0.75 1.875 C1.78638932 4.10024869 1.78638932 4.10024869 3.71875 4.7890625 C6.91336981 6.48483671 9.23790544 8.9483449 11.75 11.5 C12.25660156 11.99886719 12.76320313 12.49773437 13.28515625 13.01171875 C17 16.74658861 17 16.74658861 17 19 C17.66 19 18.32 19 19 19 C18.505 20.485 18.505 20.485 18 22 C11.4 15.4 4.8 8.8 -2 2 C-5.70134047 3.85067023 -6.62921548 4.44457503 -8.91772461 7.53173828 C-32.70217179 38.61046492 -32.70217179 38.61046492 -48.88916016 41.69628906 C-64.15443163 43.55421528 -79.82084335 42.07766572 -95 40 C-94.97113205 40.63512009 -94.9422641 41.27024017 -94.91252136 41.92460632 C-94.62278691 48.59207056 -94.428018 55.25772509 -94.28588867 61.92993164 C-94.22088628 64.41244217 -94.13244558 66.89446221 -94.01928711 69.37524414 C-93.0513868 91.15519095 -93.0513868 91.15519095 -97.95166016 97.60791016 C-100.98413207 100.89722078 -104.28809151 103.51648825 -108 106 C-108.33 105.01 -108.66 104.02 -109 103 C-106.50812904 99.5264829 -104.62931868 97.38120741 -100.94091797 95.14697266 C-98.75546851 93.318373 -98.07213827 92.31996596 -97.43843079 89.50918579 C-97.22475392 86.3111204 -97.19578852 83.1582121 -97.23046875 79.953125 C-97.21913406 78.78618103 -97.20779938 77.61923706 -97.19612122 76.41693115 C-97.16539358 72.69416787 -97.17524905 68.97284745 -97.1875 65.25 C-97.17335505 61.51333665 -97.15103214 57.77682245 -97.12532043 54.04022217 C-97.11222642 51.71542561 -97.10755374 49.3905643 -97.11186218 47.06573486 C-97.11128311 46.020849 -97.11070404 44.97596313 -97.11010742 43.89941406 C-97.11266037 42.97517639 -97.11521332 42.05093872 -97.11784363 41.09869385 C-97 39 -97 39 -96 38 C-94.36389557 37.90319568 -92.72368236 37.87484227 -91.0847168 37.87402344 C-90.03660324 37.87021667 -88.98848969 37.86640991 -87.90861511 37.86248779 C-86.76701431 37.86146057 -85.62541351 37.86043335 -84.44921875 37.859375 C-82.05532902 37.8410479 -79.66144854 37.82147768 -77.26757812 37.80078125 C-73.47518351 37.77178102 -69.68338192 37.74999947 -65.89086914 37.74951172 C-62.2431108 37.74618542 -58.59673757 37.71167829 -54.94921875 37.671875 C-53.81369064 37.6789447 -52.67816254 37.6860144 -51.50822449 37.69329834 C-45.30198398 37.7893369 -45.30198398 37.7893369 -40.37817383 34.45800781 C-39.92337646 33.64686523 -39.4685791 32.83572266 -39 32 C-38.34 32 -37.68 32 -37 32 C-37 31.34 -37 30.68 -37 30 C-32.52941176 26 -32.52941176 26 -30 26 C-29.91234375 25.40960938 -29.8246875 24.81921875 -29.734375 24.2109375 C-28.80265963 21.40587952 -27.54252536 20.46074399 -25.25 18.625 C-22.58978311 16.41768742 -20.26787134 14.27637598 -18.125 11.5625 C-17.073125 10.2940625 -17.073125 10.2940625 -16 9 C-15.34 9 -14.68 9 -14 9 C-14 8.34 -14 7.68 -14 7 C-9.96527328 2.47373297 -6.39536659 -1.11918915 0 0 Z " fill="#E76A6B" transform="translate(253,118)"/>
<path d="M0 0 C0.97010513 0.97405792 1.94021027 1.94811584 2.93971252 2.95169067 C7.20083037 6.58148596 10.51179086 6.85551959 15.96459961 6.77294922 C17.26823456 6.78889381 17.26823456 6.78889381 18.59820557 6.80516052 C21.45018234 6.83310364 24.300294 6.81918117 27.15234375 6.8046875 C29.13775746 6.8159431 31.12315786 6.82982612 33.10853577 6.84622192 C38.31841133 6.88221826 43.52769956 6.88263866 48.7376709 6.87554932 C54.06024646 6.87463559 59.38260287 6.90750666 64.70507812 6.9375 C75.13678028 6.99132316 85.5681743 7.00754873 96 7 C96.74089096 12.76620819 97.13771483 18.39886317 97.08178711 24.21020508 C97.07872055 24.97562622 97.07565399 25.74104736 97.07249451 26.52966309 C97.06540122 28.17304884 97.05604483 29.81642616 97.04459953 31.45978737 C97.02705884 34.06179495 97.01686429 36.66373994 97.00868225 39.26579285 C96.98434859 46.65731706 96.94849823 54.04875568 96.90405273 61.44018555 C96.87728447 65.97630451 96.86023633 70.51237604 96.84918404 75.04855919 C96.84297968 76.77295385 96.83298113 78.49733923 96.81910515 80.22168922 C96.79990396 82.62677719 96.79299586 85.03161333 96.78881836 87.43676758 C96.77567596 88.50204933 96.77567596 88.50204933 96.76226807 89.58885193 C96.76949895 93.23271549 96.99819899 95.90176017 99 99 C99.66 99 100.32 99 101 99 C101 99.66 101 100.32 101 101 C99.515 100.505 99.515 100.505 98 100 C98 99.34 98 98.68 98 98 C96.515 97.505 96.515 97.505 95 97 C93.40771525 93.8154305 93.87071913 90.37483383 93.88647461 86.87841797 C93.88635407 86.02572893 93.88623354 85.17303989 93.88610935 84.2945118 C93.88685733 81.52704407 93.89448037 78.75964322 93.90234375 75.9921875 C93.90381352 74.28654004 93.90483402 72.58089214 93.90539551 70.87524414 C93.91064428 64.54182256 93.92460541 58.20841063 93.9375 51.875 C93.958125 37.72625 93.97875 23.5775 94 9 C63.97 9 33.94 9 3 9 C2.01 6.03 1.02 3.06 0 0 Z " fill="#ED5B5C" transform="translate(304,93)"/>
<path d="M0 0 C4.61010288 0.85616196 7.07089374 3.62744408 10.25 6.875 C10.80429687 7.41769531 11.35859375 7.96039063 11.9296875 8.51953125 C16 12.61991995 16 12.61991995 16 16 C17.00811234 15.99666908 17.00811234 15.99666908 18.03659058 15.99327087 C25.01153025 15.97120178 31.98646007 15.95608657 38.96142578 15.94506836 C41.56689863 15.9400297 44.17236863 15.9331987 46.77783203 15.92456055 C50.51595764 15.91247456 54.25404597 15.90676712 57.9921875 15.90234375 C59.16304901 15.89718246 60.33391052 15.89202118 61.54025269 15.88670349 C63.161707 15.88659019 63.161707 15.88659019 64.81591797 15.88647461 C65.77078094 15.884254 66.72564392 15.88203339 67.70944214 15.87974548 C70 16 70 16 72 17 C71.9969838 17.65066437 71.99396759 18.30132874 71.99085999 18.97171021 C71.96626946 25.7531493 71.99043252 32.53318015 72.04272461 39.31445312 C72.05585228 41.84404154 72.05660978 44.37372597 72.04467773 46.90332031 C72.02966612 50.54327899 72.0593503 54.18057215 72.09765625 57.8203125 C72.08340103 58.94865509 72.06914581 60.07699768 72.05445862 61.23953247 C72.05161493 67.00714211 72.05161493 67.00714211 74.54298401 72.01016235 C76.2928561 73.51281299 78.0629979 74.75469295 80 76 C81.3083603 77.33934151 82.58810681 78.70848891 83.8125 80.125 C84.65748047 81.08792969 84.65748047 81.08792969 85.51953125 82.0703125 C86.97764148 83.97085724 88.0091726 85.82501303 89 88 C89.66 88 90.32 88 91 88 C90.505 89.485 90.505 89.485 90 91 C81.55074836 86.42144941 73.41245166 80.26233516 70 71 C66.64990807 53.92631719 68.76438527 35.23752598 70 18 C69.02067253 18.01665459 69.02067253 18.01665459 68.02156067 18.03364563 C61.22471805 18.14428563 54.42813132 18.21968702 47.63061523 18.2746582 C45.0940512 18.29979839 42.55755958 18.33391537 40.02124023 18.37719727 C36.37465549 18.43786661 32.72902868 18.46621574 29.08203125 18.48828125 C27.94852737 18.51408768 26.8150235 18.5398941 25.64717102 18.56648254 C17.74519096 18.56929593 17.74519096 18.56929593 13.93945312 15.66186523 C12.97942383 14.34424194 12.97942383 14.34424194 12 13 C10.96316545 11.97302273 9.92555036 10.94683211 8.88671875 9.921875 C7.82029013 8.86460589 6.7538841 7.80731401 5.6875 6.75 C5.13771484 6.20859375 4.58792969 5.6671875 4.02148438 5.109375 C2.6620467 3.75838103 1.32847876 2.3814484 0 1 C0 0.67 0 0.34 0 0 Z " fill="#E66C6E" transform="translate(272,140)"/>
<path d="M0 0 C0.33 0 0.66 0 1 0 C1 30.36 1 60.72 1 92 C-0.65 91.67 -2.3 91.34 -4 91 C-4 91.99 -4 92.98 -4 94 C-4.99 94.33 -5.98 94.66 -7 95 C-8.00642948 96.32848691 -9.00692179 97.66150329 -10 99 C-10.66 99 -11.32 99 -12 99 C-12.2475 99.5775 -12.495 100.155 -12.75 100.75 C-14.18299988 103.32939979 -15.78424676 105.06121592 -18 107 C-18.66 107 -19.32 107 -20 107 C-20 107.66 -20 108.32 -20 109 C-20.66 109 -21.32 109 -22 109 C-22.2475 109.53625 -22.495 110.0725 -22.75 110.625 C-26.98850575 118.67816092 -26.98850575 118.67816092 -30.75 119.875 C-31.4925 119.91625 -32.235 119.9575 -33 120 C-33 120.99 -33 121.98 -33 123 C-33.66 123 -34.32 123 -35 123 C-35.66 124.32 -36.32 125.64 -37 127 C-37.66 127 -38.32 127 -39 127 C-38.67 127.99 -38.34 128.98 -38 130 C-39.76245222 131.1999038 -41.53526981 132.38459517 -43.3125 133.5625 C-44.29863281 134.22378906 -45.28476562 134.88507813 -46.30078125 135.56640625 C-47.19152344 136.03949219 -48.08226562 136.51257813 -49 137 C-49.99 136.67 -50.98 136.34 -52 136 C-50.625 134.5 -50.625 134.5 -49 133 C-48.34 133 -47.68 133 -47 133 C-47 132.34 -47 131.68 -47 131 C-46.34 131 -45.68 131 -45 131 C-44.773125 130.443125 -44.54625 129.88625 -44.3125 129.3125 C-42.62449964 126.33840412 -40.53323483 124.27991135 -38 122 C-37.34 122 -36.68 122 -36 122 C-36 121.34 -36 120.68 -36 120 C-35.34 120 -34.68 120 -34 120 C-34 119.34 -34 118.68 -34 118 C-33.34 118 -32.68 118 -32 118 C-32 117.34 -32 116.68 -32 116 C-31.34 116 -30.68 116 -30 116 C-29.773125 115.443125 -29.54625 114.88625 -29.3125 114.3125 C-27.62449964 111.33840412 -25.53323483 109.27991135 -23 107 C-22.34 107 -21.68 107 -21 107 C-21 106.34 -21 105.68 -21 105 C-20.34 105 -19.68 105 -19 105 C-19 104.34 -19 103.68 -19 103 C-18.34 103 -17.68 103 -17 103 C-16.773125 102.443125 -16.54625 101.88625 -16.3125 101.3125 C-14.62449964 98.33840412 -12.53323483 96.27991135 -10 94 C-9.34 94 -8.68 94 -8 94 C-8 93.34 -8 92.68 -8 92 C-7.34 92 -6.68 92 -6 92 C-6 91.34 -6 90.68 -6 90 C-5.34 90 -4.68 90 -4 90 C-4 89.34 -4 88.68 -4 88 C-3.01 87.67 -2.02 87.34 -1 87 C-0.67 58.29 -0.34 29.58 0 0 Z " fill="#EE3838" transform="translate(101,102)"/>
<path d="M0 0 C0.66 0 1.32 0 2 0 C2.33 28.71 2.66 57.42 3 87 C9.53425781 87.01417969 16.06851563 87.02835937 22.80078125 87.04296875 C26.93429927 87.06301994 31.06770556 87.08453166 35.20117188 87.11132812 C41.76558823 87.15374411 48.32972156 87.19067701 54.89428711 87.19555664 C60.18540326 87.19982741 65.4758867 87.22818853 70.76680565 87.27343178 C72.7878266 87.28644593 74.80892312 87.29070068 76.82998085 87.28615379 C79.65598949 87.28127558 82.48012898 87.30721559 85.3059082 87.34057617 C86.14603958 87.33195053 86.98617096 87.32332489 87.85176086 87.31443787 C90.18452454 87.36076355 90.18452454 87.36076355 94 88 C96.05741316 90.43280676 97 91.80294295 97 95 C97.66 95 98.32 95 99 95 C99 95.66 99 96.32 99 97 C100.65 97 102.3 97 104 97 C104.12375 97.969375 104.2475 98.93875 104.375 99.9375 C104.58125 100.948125 104.7875 101.95875 105 103 C105.66 103.33 106.32 103.66 107 104 C103 104 103 104 101.296875 102.7578125 C100.78640625 102.21898437 100.2759375 101.68015625 99.75 101.125 C99.22921875 100.59132813 98.7084375 100.05765625 98.171875 99.5078125 C97 98 97 98 97 96 C96.34 96 95.68 96 95 96 C95 95.34 95 94.68 95 94 C94.34 94 93.68 94 93 94 C92.63705841 93.35093185 92.27411682 92.70186371 91.900177 92.03312683 C90.0349088 89.60948554 90.0349088 89.60948554 86.30514526 89.48774719 C84.73602913 89.4614216 83.16645287 89.45718922 81.59716797 89.4699707 C80.74002197 89.46123932 79.88287598 89.45250793 78.99975586 89.44351196 C76.16368811 89.41909343 73.32834715 89.42254915 70.4921875 89.42578125 C68.52587637 89.41334292 66.55957637 89.3990106 64.59329224 89.38285828 C59.41511755 89.34477315 54.23713433 89.32963344 49.05883789 89.32006836 C40.76248419 89.30034695 32.46627699 89.24362928 24.17007828 89.19130516 C21.26448549 89.17589948 18.35896514 89.16875675 15.45333862 89.16316223 C13.68357303 89.15614951 11.91380779 89.14904887 10.14404297 89.1418457 C9.32948639 89.14237442 8.51492981 89.14290314 7.6756897 89.14344788 C2.11321622 89.11321622 2.11321622 89.11321622 1 88 C0.87483363 85.26194796 0.81392327 82.54788281 0.79467773 79.80834961 C0.78477814 78.94988937 0.77487854 78.09142914 0.76467896 77.20695496 C0.73296691 74.35544641 0.70826836 71.50392118 0.68359375 68.65234375 C0.66303259 66.68078669 0.64203635 64.70923412 0.62062073 62.73768616 C0.56531347 57.53778715 0.5159425 52.3378478 0.46777344 47.13787842 C0.41762143 41.83602286 0.36190256 36.5342262 0.30664062 31.23242188 C0.19895327 20.82166485 0.09753195 10.41085677 0 0 Z " fill="#DA6B6A" transform="translate(99,311)"/>
<path d="M0 0 C0.99 0 1.98 0 3 0 C2.67 0.99 2.34 1.98 2 3 C0.92908205 14.14349889 0.80611527 25.34564881 0.68359375 36.53125 C0.66511272 37.9645229 0.6462725 39.39779121 0.6270752 40.83105469 C0.55956625 46.05398244 0.49891873 51.27699708 0.4375 56.5 C0.293125 68.215 0.14875 79.93 0 92 C-44.55 92.495 -44.55 92.495 -90 93 C-90 93.66 -90 94.32 -90 95 C-90.66 95 -91.32 95 -92 95 C-92 94.01 -92 93.02 -92 92 C-88.74873227 90.37436614 -85.17462025 90.8709104 -81.60302734 90.88647461 C-80.73466751 90.88632858 -79.86630768 90.88618256 -78.97163391 90.8860321 C-76.09304328 90.88673039 -73.21451686 90.8945189 -70.3359375 90.90234375 C-68.34339432 90.90420823 -66.35085069 90.90563199 -64.35830688 90.90663147 C-59.10740906 90.91045431 -53.85653878 90.92028263 -48.60565186 90.93133545 C-43.25012586 90.94155457 -37.89459543 90.94613017 -32.5390625 90.95117188 C-22.02602955 90.96190509 -11.51301706 90.97897873 -1 91 C-1.00222061 89.88944244 -1.00444122 88.77888489 -1.00672913 87.63467407 C-1.02696963 77.18683552 -1.04197654 66.73900092 -1.05181217 56.29114723 C-1.05703868 50.91935028 -1.06413214 45.54756911 -1.07543945 40.17578125 C-1.08627654 34.99517028 -1.09227859 29.81457452 -1.09487724 24.63395309 C-1.09673 22.65393204 -1.10034778 20.67391185 -1.10573006 18.69389725 C-1.11295136 15.92823717 -1.11399048 13.16264059 -1.11352539 10.39697266 C-1.11712067 9.57194748 -1.12071594 8.7469223 -1.12442017 7.89689636 C-1.11405216 2.22810432 -1.11405216 2.22810432 0 0 Z " fill="#E27475" transform="translate(400,308)"/>
<path d="M0 0 C2.64 0.66 5.28 1.32 8 2 C7.67 2.99 7.34 3.98 7 5 C7.66 5 8.32 5 9 5 C9 5.66 9 6.32 9 7 C9.66 7 10.32 7 11 7 C11.061875 7.61875 11.12375 8.2375 11.1875 8.875 C11.455625 9.57625 11.72375 10.2775 12 11 C13.64034193 11.72904086 15.31301918 12.38655243 17 13 C19.8125 14.875 19.8125 14.875 22 17 C22 18.32 22 19.64 22 21 C22.58910156 21.25652344 23.17820313 21.51304687 23.78515625 21.77734375 C26.18888366 23.10426911 27.60342648 24.53358264 29.4375 26.5625 C32.15035366 29.38059367 33.9223453 30.87643471 38 31 C38.309375 30.38125 38.61875 29.7625 38.9375 29.125 C39.625 27.75 40.3125 26.375 41 25 C41.99 25 42.98 25 44 25 C44.0928125 24.071875 44.0928125 24.071875 44.1875 23.125 C45 21 45 21 47.5625 19.75 C48.366875 19.5025 49.17125 19.255 50 19 C50 19.66 50 20.32 50 21 C49.34 21 48.68 21 48 21 C47.773125 21.556875 47.54625 22.11375 47.3125 22.6875 C45.62449964 25.66159588 43.53323483 27.72008865 41 30 C40.34 30 39.68 30 39 30 C39 30.66 39 31.32 39 32 C38.34 32 37.68 32 37 32 C37 32.66 37 33.32 37 34 C35.68 34 34.36 34 33 34 C33 33.34 33 32.68 33 32 C32.45859375 31.7834375 31.9171875 31.566875 31.359375 31.34375 C28.18354656 29.53500003 25.79271919 27.08276201 23.25 24.5 C22.74339844 24.00113281 22.23679688 23.50226563 21.71484375 22.98828125 C18 19.25341139 18 19.25341139 18 17 C17.443125 16.773125 16.88625 16.54625 16.3125 16.3125 C13.33840412 14.62449964 11.27991135 12.53323483 9 10 C9 9.34 9 8.68 9 8 C8.34 8 7.68 8 7 8 C7 7.34 7 6.68 7 6 C6.34 6 5.68 6 5 6 C5 5.34 5 4.68 5 4 C4.34 4 3.68 4 3 4 C3 3.34 3 2.68 3 2 C2.01 1.67 1.02 1.34 0 1 C0 0.67 0 0.34 0 0 Z " fill="#DC5F60" transform="translate(215,427)"/>
<path d="M0 0 C1 3 1 3 0.375 4.875 C-1.4073544 7.62954771 -3.68166821 9.68166821 -6 12 C-6.9590625 13.5778125 -6.9590625 13.5778125 -7.9375 15.1875 C-10.41949693 18.57204127 -12.03289877 18.92557675 -16 20 C-19.19710485 21.77616936 -19.8882766 22.71510532 -21.25 26.1875 C-21.4975 27.115625 -21.745 28.04375 -22 29 C-23.98 29.33 -25.96 29.66 -28 30 C-28.33 28.68 -28.66 27.36 -29 26 C-28.443125 25.95875 -27.88625 25.9175 -27.3125 25.875 C-24.72559348 24.89617051 -24.05977846 24.06222061 -22.375 21.9375 C-21.199375 20.4834375 -21.199375 20.4834375 -20 19 C-19.34 19 -18.68 19 -18 19 C-18 18.34 -18 17.68 -18 17 C-16.42578125 15.44921875 -16.42578125 15.44921875 -14.3125 13.6875 C-11.05461686 10.91715219 -7.98569845 8.066393 -5 5 C-2.5 2.5 -2.5 2.5 0 0 Z " fill="#F12223" transform="translate(277,354)"/>
<path d="M0 0 C0.66 0 1.32 0 2 0 C3.25415039 1.27539062 3.25415039 1.27539062 4.78515625 3.15625 C10.29244165 9.63305751 16.4088451 15.51465793 22.4375 21.5 C23.6584369 22.71591114 24.87914192 23.93205516 26.09960938 25.1484375 C29.06374013 28.10164966 32.03098958 31.05169398 35 34 C34.01 34.33 33.02 34.66 32 35 C31.34 33.68 30.68 32.36 30 31 C29.01 31 28.02 31 27 31 C24 27.66666667 24 27.66666667 24 25 C22.35 24.67 20.7 24.34 19 24 C19 22.68 19 21.36 19 20 C17.68 20 16.36 20 15 20 C13.09797357 18.53690275 12.13921563 17.29831921 11.125 15.125 C9.03304554 11.17353047 5.42577542 8.3973904 2.1875 5.375 C0 3 0 3 0 0 Z " fill="#E45B5D" transform="translate(213,345)"/>
<path d="M0 0 C0.33 0 0.66 0 1 0 C1 30.36 1 60.72 1 92 C-0.65 91.67 -2.3 91.34 -4 91 C-4 91.99 -4 92.98 -4 94 C-4.66 94 -5.32 94 -6 94 C-6 92.68 -6 91.36 -6 90 C-5.34 90 -4.68 90 -4 90 C-4 89.34 -4 88.68 -4 88 C-2.515 87.505 -2.515 87.505 -1 87 C-0.67 58.29 -0.34 29.58 0 0 Z " fill="#EB4442" transform="translate(101,102)"/>
<path d="M0 0 C0.66 0 1.32 0 2 0 C2 0.66 2 1.32 2 2 C2.66 2 3.32 2 4 2 C4 2.66 4 3.32 4 4 C4.66 4 5.32 4 6 4 C6 4.66 6 5.32 6 6 C6.66 6 7.32 6 8 6 C8 6.66 8 7.32 8 8 C8.598125 8.268125 9.19625 8.53625 9.8125 8.8125 C11.99847854 9.99917406 13.41332594 11.09599113 15 13 C15 13.66 15 14.32 15 15 C15.66 15 16.32 15 17 15 C17 15.66 17 16.32 17 17 C17.66 17 18.32 17 19 17 C19 18.32 19 19.64 19 21 C18.34 21 17.68 21 17 21 C17 21.66 17 22.32 17 23 C16.34 23 15.68 23 15 23 C14.773125 23.556875 14.54625 24.11375 14.3125 24.6875 C12.62449964 27.66159588 10.53323483 29.72008865 8 32 C7.34 32 6.68 32 6 32 C6 32.66 6 33.32 6 34 C5.34 34 4.68 34 4 34 C4.66 32.35 5.32 30.7 6 29 C6.99 29 7.98 29 9 29 C9.0825 28.401875 9.165 27.80375 9.25 27.1875 C10.21576779 24.37067727 11.48868567 23.52200868 14 22 C14.66 22 15.32 22 16 22 C16 20.02 16 18.04 16 16 C15.34 16 14.68 16 14 16 C14 15.34 14 14.68 14 14 C13.071875 13.7834375 13.071875 13.7834375 12.125 13.5625 C10 13 10 13 8 12 C8 11.34 8 10.68 8 10 C6.35 9.67 4.7 9.34 3 9 C2.87625 8.360625 2.7525 7.72125 2.625 7.0625 C2.315625 6.0415625 2.315625 6.0415625 2 5 C1.34 4.67 0.68 4.34 0 4 C0 2.68 0 1.36 0 0 Z " fill="#E58582" transform="translate(442,231)"/>
<path d="M0 0 C0.99 0.33 1.98 0.66 3 1 C-4.92 8.92 -12.84 16.84 -21 25 C-19.14470719 28.91731018 -19.14470719 28.91731018 -17 32 C-17.99 32.495 -17.99 32.495 -19 33 C-19 32.34 -19 31.68 -19 31 C-20.98 30.67 -22.96 30.34 -25 30 C-26 27 -26 27 -24.9375 24.625 C-22.60435726 21.4639679 -20.05843636 19.46004664 -17 17 C-16.67 16.34 -16.34 15.68 -16 15 C-15.34 15 -14.68 15 -14 15 C-14 14.34 -14 13.68 -14 13 C-12.42578125 11.44921875 -12.42578125 11.44921875 -10.3125 9.6875 C-7.04652816 6.91374023 -3.98298899 4.07338259 -1 1 C-0.67 0.67 -0.34 0.34 0 0 Z " fill="#E5585B" transform="translate(141,224)"/>
<path d="M0 0 C0.33 0.99 0.66 1.98 1 3 C0.07421875 4.82421875 0.07421875 4.82421875 -1.3125 6.6875 C-1.76238281 7.31011719 -2.21226562 7.93273437 -2.67578125 8.57421875 C-3.11277344 9.04472656 -3.54976563 9.51523437 -4 10 C-4.66 10 -5.32 10 -6 10 C-6.66 11.32 -7.32 12.64 -8 14 C-9.65 14 -11.3 14 -13 14 C-13 31.82 -13 49.64 -13 68 C-13.33 68 -13.66 68 -14 68 C-14.20321382 60.29578839 -14.34309447 52.59227 -14.43945312 44.88598633 C-14.47962956 42.26593195 -14.53418267 39.64605632 -14.60351562 37.02661133 C-14.70081427 33.25557344 -14.74598781 29.48690984 -14.78125 25.71484375 C-14.82254028 24.54791489 -14.86383057 23.38098602 -14.90637207 22.17869568 C-14.91076351 14.17986587 -14.91076351 14.17986587 -12.26904297 10.75759888 C-10.25963649 8.99456995 -8.20860741 7.50032951 -6 6 C-4.99628126 5.06741283 -4.01312097 4.11165592 -3.0625 3.125 C-1 1 -1 1 0 0 Z " fill="#E35556" transform="translate(357,274)"/>
<path d="M0 0 C0.33 0.99 0.66 1.98 1 3 C0.01 4.485 0.01 4.485 -1 6 C-1.66 6 -2.32 6 -3 6 C-3.33 6.99 -3.66 7.98 -4 9 C-4.66 9 -5.32 9 -6 9 C-6.33 9.99 -6.66 10.98 -7 12 C-9.0625 12.6875 -9.0625 12.6875 -11 13 C-11.0928125 13.804375 -11.0928125 13.804375 -11.1875 14.625 C-12.41179896 18.20372005 -14.38450273 20.25995524 -17 23 C-17.99 23 -18.98 23 -20 23 C-20 23.66 -20 24.32 -20 25 C-21.75 26.7265625 -21.75 26.7265625 -24 28.625 C-25.11375 29.57246094 -25.11375 29.57246094 -26.25 30.5390625 C-26.8275 31.02117187 -27.405 31.50328125 -28 32 C-28.66 31.67 -29.32 31.34 -30 31 C-28.625 29 -28.625 29 -27 27 C-26.34 27 -25.68 27 -25 27 C-24.61328125 26.12601563 -24.61328125 26.12601563 -24.21875 25.234375 C-22.90165983 22.8197097 -21.44911616 21.18259823 -19.5 19.25 C-18.8915625 18.63640625 -18.283125 18.0228125 -17.65625 17.390625 C-16 16 -16 16 -14 16 C-14 15.34 -14 14.68 -14 14 C-13.34 14 -12.68 14 -12 14 C-12 13.34 -12 12.68 -12 12 C-11.34 12 -10.68 12 -10 12 C-9.75507813 11.42765625 -9.51015625 10.8553125 -9.2578125 10.265625 C-7.78889901 7.61975598 -6.04651756 5.85146861 -3.875 3.75 C-3.15054688 3.04359375 -2.42609375 2.3371875 -1.6796875 1.609375 C-1.12539062 1.07828125 -0.57109375 0.5471875 0 0 Z " fill="#ED5F62" transform="translate(219,68)"/>
<path d="M0 0 C0.66 0 1.32 0 2 0 C1.99555878 1.0184198 1.99111755 2.0368396 1.98654175 3.08612061 C1.94601328 12.67978694 1.91602406 22.27343593 1.89637566 31.86716843 C1.88593468 36.79950272 1.8717697 41.73176795 1.84912109 46.6640625 C1.82740399 51.4232374 1.81543374 56.18234584 1.81024551 60.94156647 C1.80654773 62.75805966 1.79932697 64.57454918 1.78853989 66.3910141 C1.77404004 68.93360786 1.77202143 71.47592629 1.77294922 74.01855469 C1.76216339 75.14712387 1.76216339 75.14712387 1.75115967 76.29849243 C1.7658944 80.02573319 1.92239308 82.83628505 4 86 C4.66 86 5.32 86 6 86 C6 86.66 6 87.32 6 88 C5.01 87.67 4.02 87.34 3 87 C3 86.34 3 85.68 3 85 C2.01 84.67 1.02 84.34 0 84 C0 56.28 0 28.56 0 0 Z " fill="#E37578" transform="translate(399,106)"/>
<path d="M0 0 C2.56225681 3.84338521 2.26647551 6.96619106 2.22705078 11.41870117 C2.22734283 12.27745346 2.22763489 13.13620575 2.22793579 14.02098083 C2.22654155 16.86174597 2.2109759 19.70224939 2.1953125 22.54296875 C2.19158271 24.51166134 2.18873558 26.48035579 2.18673706 28.4490509 C2.17909796 33.63256956 2.15944707 38.81597628 2.1373291 43.99945068 C2.11687665 49.28802984 2.10773663 54.57662707 2.09765625 59.86523438 C2.07620147 70.24353879 2.04206215 80.62176009 2 91 C1.67 91 1.34 91 1 91 C1 62.29 1 33.58 1 4 C-0.32 3.34 -1.64 2.68 -3 2 C-2.01 1.34 -1.02 0.68 0 0 Z " fill="#E6403E" transform="translate(100,307)"/>
<path d="M0 0 C0.66 0 1.32 0 2 0 C2.33 0.66 2.66 1.32 3 2 C3.99 2.33 4.98 2.66 6 3 C6 2.01 6 1.02 6 0 C6.99 0 7.98 0 9 0 C9 0.66 9 1.32 9 2 C8.34 2 7.68 2 7 2 C6.773125 2.556875 6.54625 3.11375 6.3125 3.6875 C4.62449964 6.66159588 2.53323483 8.72008865 0 11 C-0.66 11 -1.32 11 -2 11 C-2 11.66 -2 12.32 -2 13 C-2.66 13 -3.32 13 -4 13 C-4 13.66 -4 14.32 -4 15 C-4.66 15 -5.32 15 -6 15 C-6.226875 15.5775 -6.45375 16.155 -6.6875 16.75 C-8.33038023 19.5663661 -10.39533227 21.08077114 -13 23 C-13 21.68 -13 20.36 -13 19 C-12.34 18.67 -11.68 18.34 -11 18 C-10.34786708 15.97536745 -10.34786708 15.97536745 -10 14 C-8.68 14 -7.36 14 -6 14 C-5.7525 13.401875 -5.505 12.80375 -5.25 12.1875 C-4 10 -4 10 -1.875 8.6875 C0.42942668 7.00738449 0.42942668 7.00738449 0.25 3.3125 C0.1675 2.219375 0.085 1.12625 0 0 Z " fill="#EB7073" transform="translate(422,280)"/>
<path d="M0 0 C1.32 0 2.64 0 4 0 C4 0.66 4 1.32 4 2 C4.66 2 5.32 2 6 2 C6 2.66 6 3.32 6 4 C5.24074219 3.92007813 4.48148438 3.84015625 3.69921875 3.7578125 C0.92377683 3.72132636 0.92377683 3.72132636 -0.73046875 5.6796875 C-1.21128906 6.40414062 -1.69210938 7.12859375 -2.1875 7.875 C-5.86590108 13.29069341 -8.81102233 14.93700744 -15 17 C-15 16.34 -15 15.68 -15 15 C-14.34 15 -13.68 15 -13 15 C-12.7628125 14.43796875 -12.525625 13.8759375 -12.28125 13.296875 C-10.71052303 10.48105958 -8.78528536 8.52044584 -6.5 6.25 C-5.7059375 5.45078125 -4.911875 4.6515625 -4.09375 3.828125 C-2 2 -2 2 0 2 C0 1.34 0 0.68 0 0 Z " fill="#ED393B" transform="translate(248,39)"/>
<path d="M0 0 C1.12588014 0.95729916 2.2506715 1.91587895 3.375 2.875 C4.00148437 3.40867187 4.62796875 3.94234375 5.2734375 4.4921875 C8.97070759 7.72102518 8.97070759 7.72102518 9.24050903 10.29055786 C9.23606781 11.24542084 9.23162659 12.20028381 9.22705078 13.18408203 C9.22682419 14.80553635 9.22682419 14.80553635 9.22659302 16.45974731 C9.21627045 17.63060883 9.20594788 18.80147034 9.1953125 20.0078125 C9.1924826 21.20356903 9.18965271 22.39932556 9.18673706 23.63131714 C9.17551305 27.46264519 9.15040431 31.29374222 9.125 35.125 C9.11497308 37.71744455 9.10584673 40.30989275 9.09765625 42.90234375 C9.07556646 49.26830842 9.04206706 55.63413771 9 62 C8.67 62 8.34 62 8 62 C8 44.51 8 27.02 8 9 C6.68 8.67 5.36 8.34 4 8 C0 3.77777778 0 3.77777778 0 0 Z " fill="#E05457" transform="translate(148,280)"/>
<path d="M0 0 C0.625 1.8125 0.625 1.8125 1 4 C0.01 5.485 0.01 5.485 -1 7 C-1.99 7 -2.98 7 -4 7 C-4 7.99 -4 8.98 -4 10 C-4.78375 10.2475 -5.5675 10.495 -6.375 10.75 C-9.32317108 12.15389099 -9.9024777 13.00675737 -11 16 C-11.66 16 -12.32 16 -13 16 C-13.33 16.99 -13.66 17.98 -14 19 C-17.0625 20.1875 -17.0625 20.1875 -20 21 C-19.62488281 20.56429688 -19.24976563 20.12859375 -18.86328125 19.6796875 C-18.35152344 19.08414062 -17.83976562 18.48859375 -17.3125 17.875 C-16.75949219 17.23304688 -16.20648438 16.59109375 -15.63671875 15.9296875 C-14.26632874 14.31400095 -12.94001332 12.66106946 -11.625 11 C-8.37533096 7.28609252 -4.75606182 4.18563187 -1 1 C-0.67 0.67 -0.34 0.34 0 0 Z " fill="#E55F63" transform="translate(378,253)"/>
<path d="M0 0 C0.66 0 1.32 0 2 0 C0.50592885 4.7312253 0.50592885 4.7312253 -2 6.0625 C-2.66 6.371875 -3.32 6.68125 -4 7 C-4.70151152 8.3153341 -5.36525925 9.65117592 -6 11 C-8 13.25 -8 13.25 -10 15 C-10.66 15 -11.32 15 -12 15 C-12 15.66 -12 16.32 -12 17 C-12.66 17 -13.32 17 -14 17 C-14.33 17.99 -14.66 18.98 -15 20 C-16.65 20.33 -18.3 20.66 -20 21 C-18.38405168 18.95880212 -16.7143618 16.95927063 -15 15 C-14.34 15 -13.68 15 -13 15 C-13 14.34 -13 13.68 -13 13 C-12.34 13 -11.68 13 -11 13 C-11 12.34 -11 11.68 -11 11 C-10.34 11 -9.68 11 -9 11 C-8.773125 10.443125 -8.54625 9.88625 -8.3125 9.3125 C-6.62449964 6.33840412 -4.53323483 4.27991135 -2 2 C-1.34 2 -0.68 2 0 2 C0 1.34 0 0.68 0 0 Z " fill="#EE7879" transform="translate(93,194)"/>
<path d="M0 0 C3.125 -0.1875 3.125 -0.1875 6 0 C6.2475 0.61875 6.495 1.2375 6.75 1.875 C7.78638932 4.10024869 7.78638932 4.10024869 9.71875 4.7890625 C12.91336981 6.48483671 15.23790544 8.9483449 17.75 11.5 C18.25660156 11.99886719 18.76320313 12.49773437 19.28515625 13.01171875 C23 16.74658861 23 16.74658861 23 19 C23.66 19 24.32 19 25 19 C24.67 19.99 24.34 20.98 24 22 C23.42556152 21.38890381 22.85112305 20.77780762 22.25927734 20.14819336 C20.11526992 17.88473841 17.9557924 15.63757926 15.78466797 13.40014648 C14.84914703 12.42946655 13.92000982 11.45259111 12.99755859 10.46948242 C11.66905713 9.05589395 10.31523387 7.66623894 8.9609375 6.27734375 C8.15446777 5.43421631 7.34799805 4.59108887 6.51708984 3.72241211 C4.05067102 1.65204175 4.05067102 1.65204175 0.68994141 2.23266602 C-0.19773926 2.48588623 -1.08541992 2.73910645 -2 3 C-1.34 2.01 -0.68 1.02 0 0 Z " fill="#DE575A" transform="translate(247,118)"/>
<path d="M0 0 C5.62303757 4.67466337 10.79741554 9.67765667 15.9375 14.875 C16.71673828 15.65875 17.49597656 16.4425 18.29882812 17.25 C20.20154085 19.16438581 22.10186171 21.08108034 24 23 C23.34 23.33 22.68 23.66 22 24 C20.66079162 22.88200014 19.32877444 21.75538103 18 20.625 C17.2575 19.99851562 16.515 19.37203125 15.75 18.7265625 C15.1725 18.15679687 14.595 17.58703125 14 17 C14 16.34 14 15.68 14 15 C13.4225 14.938125 12.845 14.87625 12.25 14.8125 C9.07551517 13.66615826 7.87151425 11.74043158 6 9 C6 8.34 6 7.68 6 7 C5.38125 6.71125 4.7625 6.4225 4.125 6.125 C2 5 2 5 0 3 C0 2.01 0 1.02 0 0 Z " fill="#E3585B" transform="translate(124,256)"/>
<path d="M0 0 C0 1.65 0 3.3 0 5 C-1.546875 4.814375 -1.546875 4.814375 -3.125 4.625 C-7.78687075 5.07614878 -8.83984927 6.25702708 -11.73828125 9.6875 C-12.15464844 10.120625 -12.57101563 10.55375 -13 11 C-13.66 11 -14.32 11 -15 11 C-15 11.66 -15 12.32 -15 13 C-15.66 13 -16.32 13 -17 13 C-17.33 13.66 -17.66 14.32 -18 15 C-17.92647157 11.91180603 -17.62286468 9.7329844 -15.5859375 7.3359375 C-11.97132273 4.10348465 -8.7577899 2.21710904 -4 1 C-2 0 -2 0 0 0 Z " fill="#F11713" transform="translate(254,114)"/>
<path d="M0 0 C0.99 0 1.98 0 3 0 C3 0.66 3 1.32 3 2 C2.34 2 1.68 2 1 2 C1 2.66 1 3.32 1 4 C0.34 4 -0.32 4 -1 4 C-1.268125 4.598125 -1.53625 5.19625 -1.8125 5.8125 C-2.99917406 7.99847854 -4.09599113 9.41332594 -6 11 C-6.66 11 -7.32 11 -8 11 C-8 11.66 -8 12.32 -8 13 C-8.66 13 -9.32 13 -10 13 C-10.33 13.66 -10.66 14.32 -11 15 C-10.75 12.625 -10.75 12.625 -10 10 C-7.9375 8.6875 -7.9375 8.6875 -6 8 C-6.3403125 7.1028125 -6.3403125 7.1028125 -6.6875 6.1875 C-7 4 -7 4 -5.8125 2.1875 C-4 1 -4 1 -1.8125 1.3125 C-1.214375 1.539375 -0.61625 1.76625 0 2 C0 1.34 0 0.68 0 0 Z M-8 5 C-7.67 5.66 -7.34 6.32 -7 7 C-7.66 6.67 -8.32 6.34 -9 6 C-8.67 5.67 -8.34 5.34 -8 5 Z " fill="#E95C57" transform="translate(443,265)"/>
<path d="M0 0 C0.66 0 1.32 0 2 0 C2.375 2.75 2.375 2.75 2 6 C-0.9375 8.1875 -0.9375 8.1875 -4 10 C-4.33 10.99 -4.66 11.98 -5 13 C-5.99 13 -6.98 13 -8 13 C-8.66 14.65 -9.32 16.3 -10 18 C-10.66 18 -11.32 18 -12 18 C-11.46870129 13.95504581 -10.37432099 11.74253628 -7.6875 8.6875 C-6.79611328 7.64142578 -6.79611328 7.64142578 -5.88671875 6.57421875 C-4 5 -4 5 0 5 C-0.33 4.01 -0.66 3.02 -1 2 C-0.67 1.34 -0.34 0.68 0 0 Z " fill="#EE1917" transform="translate(456,247)"/>
<path d="M0 0 C0.33 0 0.66 0 1 0 C1.01030746 0.62782883 1.02061493 1.25565765 1.03123474 1.9025116 C1.13945945 8.44007444 1.25404439 14.97750391 1.37231445 21.51489258 C1.41561209 23.9543173 1.45729083 26.39377132 1.49731445 28.83325195 C1.55514208 32.34074734 1.61880085 35.84809597 1.68359375 39.35546875 C1.70030624 40.44522507 1.71701874 41.53498138 1.73423767 42.65776062 C1.75418289 43.67844131 1.77412811 44.69912201 1.79467773 45.75073242 C1.81022202 46.64563889 1.8257663 47.54054535 1.84178162 48.46257019 C2.0032755 51.05253091 2.43263005 53.4705149 3 56 C2.01 55.34 1.02 54.68 0 54 C-0.36076355 51.70944214 -0.36076355 51.70944214 -0.34057617 48.81591797 C-0.34034958 47.73494843 -0.34012299 46.65397888 -0.33988953 45.54025269 C-0.32440567 44.36939117 -0.30892181 43.19852966 -0.29296875 41.9921875 C-0.28872391 40.79643097 -0.28447906 39.60067444 -0.28010559 38.36868286 C-0.26326902 34.53722929 -0.22560684 30.70629547 -0.1875 26.875 C-0.17245964 24.28255966 -0.15877011 21.69011111 -0.14648438 19.09765625 C-0.11334918 12.73159252 -0.0631003 6.36583338 0 0 Z " fill="#EA1310" transform="translate(345,157)"/>
<path d="M0 0 C5.32487038 1.49666529 8.51909853 5.00347175 12.3125 8.8125 C12.95767578 9.42931641 13.60285156 10.04613281 14.26757812 10.68164062 C18.9000102 15.29446453 18.9000102 15.29446453 19.41796875 18.94921875 C19.28003906 19.62597656 19.14210938 20.30273438 19 21 C18.01 21 17.02 21 16 21 C16.33 20.34 16.66 19.68 17 19 C12.2531712 13.37296453 7.20914858 8.14603922 1.94140625 3.00390625 C0 1 0 1 0 0 Z " fill="#DF5E61" transform="translate(363,231)"/>
<path d="M0 0 C5.46875 4.4921875 5.46875 4.4921875 7 6 C7 6.66 7 7.32 7 8 C17.23 8 27.46 8 38 8 C38 8.33 38 8.66 38 9 C26.45 9 14.9 9 3 9 C2.01 6.03 1.02 3.06 0 0 Z " fill="#EC4B49" transform="translate(304,93)"/>
<path d="M0 0 C0.33 0.66 0.66 1.32 1 2 C1.66 2.309375 2.32 2.61875 3 2.9375 C5 4 5 4 6 7 C6.66 7 7.32 7 8 7 C8 7.66 8 8.32 8 9 C8.66 9 9.32 9 10 9 C10 9.66 10 10.32 10 11 C10.66 11 11.32 11 12 11 C12 11.66 12 12.32 12 13 C12.66 13 13.32 13 14 13 C14 13.66 14 14.32 14 15 C14.66 15 15.32 15 16 15 C16 15.66 16 16.32 16 17 C13.525 16.01 13.525 16.01 11 15 C11 14.34 11 13.68 11 13 C10.360625 12.87625 9.72125 12.7525 9.0625 12.625 C8.381875 12.41875 7.70125 12.2125 7 12 C6.67 11.34 6.34 10.68 6 10 C5.01 9.67 4.02 9.34 3 9 C0.53447933 5.62132353 0 4.29441798 0 0 Z " fill="#E77173" transform="translate(406,194)"/>
<path d="M0 0 C0.99 0.33 1.98 0.66 3 1 C0.40804932 3.67877946 -2.20047108 6.34080633 -4.8125 9 C-5.55048828 9.763125 -6.28847656 10.52625 -7.04882812 11.3125 C-7.76103516 12.034375 -8.47324219 12.75625 -9.20703125 13.5 C-10.18893433 14.50546875 -10.18893433 14.50546875 -11.19067383 15.53125 C-13 17 -13 17 -16 17 C-16 16.34 -16 15.68 -16 15 C-15.34 15 -14.68 15 -14 15 C-14 14.34 -14 13.68 -14 13 C-12.42578125 11.44921875 -12.42578125 11.44921875 -10.3125 9.6875 C-7.04652816 6.91374023 -3.98298899 4.07338259 -1 1 C-0.67 0.67 -0.34 0.34 0 0 Z " fill="#E55656" transform="translate(141,224)"/>
<path d="M0 0 C0.66 0 1.32 0 2 0 C2 0.66 2 1.32 2 2 C2.99 2.33 3.98 2.66 5 3 C5 3.66 5 4.32 5 5 C5.66 5 6.32 5 7 5 C7 5.66 7 6.32 7 7 C7.66 7 8.32 7 9 7 C9 7.66 9 8.32 9 9 C9.66 9 10.32 9 11 9 C11 9.66 11 10.32 11 11 C11.66 11 12.32 11 13 11 C13 11.66 13 12.32 13 13 C13.66 13 14.32 13 15 13 C15 13.66 15 14.32 15 15 C13.68 15 12.36 15 11 15 C10.67 14.34 10.34 13.68 10 13 C9.0409375 12.566875 9.0409375 12.566875 8.0625 12.125 C5.53548352 10.74662738 4.97163556 9.67199778 4 7 C4 6.01 4 5.02 4 4 C2.68 3.67 1.36 3.34 0 3 C0 2.01 0 1.02 0 0 Z " fill="#E87375" transform="translate(282,71)"/>
<path d="M0 0 C-0.66 0 -1.32 0 -2 0 C-2 0.66 -2 1.32 -2 2 C-2.66 2 -3.32 2 -4 2 C-4.268125 2.598125 -4.53625 3.19625 -4.8125 3.8125 C-5.99917406 5.99847854 -7.09599113 7.41332594 -9 9 C-9.66 9 -10.32 9 -11 9 C-11 9.66 -11 10.32 -11 11 C-11.66 11 -12.32 11 -13 11 C-13 11.66 -13 12.32 -13 13 C-13.66 13 -14.32 13 -15 13 C-14.8125 11.25 -14.8125 11.25 -14 9 C-13.154375 8.34 -12.30875 7.68 -11.4375 7 C-10.633125 6.34 -9.82875 5.68 -9 5 C-9 3.68 -9 2.36 -9 1 C-5.57367167 -0.61798838 -3.61944899 -1.34053666 0 0 Z " fill="#E85E60" transform="translate(280,433)"/>
<path d="M0 0 C0.69738281 0.00451172 1.39476562 0.00902344 2.11328125 0.01367188 C3.82555803 0.0253998 5.53779033 0.04333347 7.25 0.0625 C7.25 0.3925 7.25 0.7225 7.25 1.0625 C5.82107422 1.10117187 5.82107422 1.10117187 4.36328125 1.140625 C3.10902344 1.19734375 1.85476563 1.2540625 0.5625 1.3125 C-0.67886719 1.35890625 -1.92023438 1.4053125 -3.19921875 1.453125 C-7.21812932 2.14283903 -8.81196844 3.31653057 -11.75 6.0625 C-14.4375 7.875 -14.4375 7.875 -16.75 9.0625 C-17.41 8.7325 -18.07 8.4025 -18.75 8.0625 C-17.67643323 6.90751103 -16.59070212 5.76382133 -15.5 4.625 C-14.89671875 3.98691406 -14.2934375 3.34882813 -13.671875 2.69140625 C-9.65672443 -0.71167868 -5.03508773 -0.06186781 0 0 Z " fill="#EC1B1D" transform="translate(296.75,344.9375)"/>
<path d="M0 0 C4.58364388 0.85576983 7.02465129 3.58097665 10.1875 6.8125 C11.00637695 7.61397461 11.00637695 7.61397461 11.84179688 8.43164062 C14.59910705 11.20945125 16.28189388 13.15370556 17 17 C16.34 17 15.68 17 15 17 C13.5546875 15.53125 13.5546875 15.53125 11.875 13.5 C8.60638428 9.6395928 5.13397576 6.08626492 1.50390625 2.56640625 C0 1 0 1 0 0 Z " fill="#E05F61" transform="translate(272,140)"/>
<path d="M0 0 C2.64 0.66 5.28 1.32 8 2 C7.67 2.99 7.34 3.98 7 5 C7.66 5 8.32 5 9 5 C9 5.66 9 6.32 9 7 C9.66 7 10.32 7 11 7 C11.103125 7.639375 11.20625 8.27875 11.3125 8.9375 C11.539375 9.618125 11.76625 10.29875 12 11 C12.99 11.33 13.98 11.66 15 12 C15.6875 14.0625 15.6875 14.0625 16 16 C14.8274869 15.04882866 13.66212985 14.08882991 12.5 13.125 C11.8503125 12.59132813 11.200625 12.05765625 10.53125 11.5078125 C10.0259375 11.01023437 9.520625 10.51265625 9 10 C9 9.34 9 8.68 9 8 C8.34 8 7.68 8 7 8 C7 7.34 7 6.68 7 6 C6.34 6 5.68 6 5 6 C5 5.34 5 4.68 5 4 C4.34 4 3.68 4 3 4 C3 3.34 3 2.68 3 2 C2.01 1.67 1.02 1.34 0 1 C0 0.67 0 0.34 0 0 Z " fill="#E67475" transform="translate(215,427)"/>
<path d="M0 0 C0.66 0.33 1.32 0.66 2 1 C1.071875 2.051875 1.071875 2.051875 0.125 3.125 C-2.0427009 6.05777181 -3.02655555 8.51182406 -4 12 C-5.98 12.33 -7.96 12.66 -10 13 C-10.33 11.68 -10.66 10.36 -11 9 C-10.1646875 8.938125 -10.1646875 8.938125 -9.3125 8.875 C-6.72559348 7.89617051 -6.05977846 7.06222061 -4.375 4.9375 C-3.199375 3.4834375 -3.199375 3.4834375 -2 2 C-1.34 2 -0.68 2 0 2 C0 1.34 0 0.68 0 0 Z " fill="#EA575A" transform="translate(259,371)"/>
<path d="M0 0 C0.33 0.99 0.66 1.98 1 3 C0.0925 3.70125 -0.815 4.4025 -1.75 5.125 C-4.8692621 7.69380408 -6.77815494 10.62892474 -9 14 C-9.99 14.33 -10.98 14.66 -12 15 C-12.33 15.66 -12.66 16.32 -13 17 C-13.99 16.67 -14.98 16.34 -16 16 C-15.48050781 15.49210937 -14.96101563 14.98421875 -14.42578125 14.4609375 C-11.20770418 11.28449913 -8.02950638 8.14699563 -5.1875 4.625 C-3 2 -3 2 0 0 Z " fill="#E25A5D" transform="translate(277,354)"/>
<path d="M0 0 C5.75 0.75 5.75 0.75 8 3 C8.165 3.680625 8.33 4.36125 8.5 5.0625 C8.665 5.701875 8.83 6.34125 9 7 C9.66 7.33 10.32 7.66 11 8 C11 8.99 11 9.98 11 11 C10.34 11 9.68 11 9 11 C9 10.34 9 9.68 9 9 C8.34 9 7.68 9 7 9 C7 8.34 7 7.68 7 7 C6.401875 6.731875 5.80375 6.46375 5.1875 6.1875 C3.00152146 5.00082594 1.58667406 3.90400887 0 2 C0 1.34 0 0.68 0 0 Z " fill="#E86466" transform="translate(86,297)"/>
<path d="M0 0 C0.65795898 1.81152344 0.65795898 1.81152344 1 4 C-0.91934784 6.29016466 -2.76347858 8.23281698 -4.9375 10.25 C-5.51435547 10.80429688 -6.09121094 11.35859375 -6.68554688 11.9296875 C-8.11277729 13.29794145 -9.55502058 14.6505038 -11 16 C-11.33 15.01 -11.66 14.02 -12 13 C-8.82968882 8.58077836 -5.18747446 5.42611546 -1 2 C-0.67 1.34 -0.34 0.68 0 0 Z " fill="#E25E5E" transform="translate(156,208)"/>
<path d="M0 0 C0.66 0 1.32 0 2 0 C2 0.66 2 1.32 2 2 C2.66 2 3.32 2 4 2 C4 2.66 4 3.32 4 4 C4.66 4 5.32 4 6 4 C6 4.66 6 5.32 6 6 C6.66 6 7.32 6 8 6 C8.66 7.98 9.32 9.96 10 12 C9.34 12 8.68 12 8 12 C8 11.34 8 10.68 8 10 C6.35 9.67 4.7 9.34 3 9 C2.87625 8.360625 2.7525 7.72125 2.625 7.0625 C2.315625 6.0415625 2.315625 6.0415625 2 5 C1.34 4.67 0.68 4.34 0 4 C0 2.68 0 1.36 0 0 Z " fill="#E84D50" transform="translate(442,231)"/>
<path d="M0 0 C2.64 0.66 5.28 1.32 8 2 C8 2.66 8 3.32 8 4 C9.32 4.33 10.64 4.66 12 5 C11.67 6.65 11.34 8.3 11 10 C10.34 10 9.68 10 9 10 C9 9.34 9 8.68 9 8 C8.34 8 7.68 8 7 8 C7 7.34 7 6.68 7 6 C6.34 6 5.68 6 5 6 C5 5.34 5 4.68 5 4 C4.34 4 3.68 4 3 4 C3 3.34 3 2.68 3 2 C2.01 1.67 1.02 1.34 0 1 C0 0.67 0 0.34 0 0 Z " fill="#E83F3E" transform="translate(60,272)"/>
<path d="M0 0 C1.32 0 2.64 0 4 0 C4 0.66 4 1.32 4 2 C5.65 2 7.3 2 9 2 C9.12375 2.969375 9.2475 3.93875 9.375 4.9375 C9.58125 5.948125 9.7875 6.95875 10 8 C10.66 8.33 11.32 8.66 12 9 C8 9 8 9 6.296875 7.7578125 C5.78640625 7.21898437 5.2759375 6.68015625 4.75 6.125 C4.22921875 5.59132813 3.7084375 5.05765625 3.171875 4.5078125 C2 3 2 3 2 1 C1.34 0.67 0.68 0.34 0 0 Z " fill="#EA6F70" transform="translate(194,406)"/>
<path d="M0 0 C2.97 0.495 2.97 0.495 6 1 C6.0825 1.61875 6.165 2.2375 6.25 2.875 C6.81258459 5.18437567 6.81258459 5.18437567 9.0625 6.25 C9.701875 6.4975 10.34125 6.745 11 7 C11 7.66 11 8.32 11 9 C11.66 9 12.32 9 13 9 C12.67 10.32 12.34 11.64 12 13 C11.67 12.01 11.34 11.02 11 10 C10.34 10 9.68 10 9 10 C9 9.34 9 8.68 9 8 C8.34 8 7.68 8 7 8 C7 7.34 7 6.68 7 6 C6.34 6 5.68 6 5 6 C5 5.34 5 4.68 5 4 C4.34 4 3.68 4 3 4 C3 3.34 3 2.68 3 2 C2.01 1.67 1.02 1.34 0 1 C0 0.67 0 0.34 0 0 Z " fill="#E87174" transform="translate(47,259)"/>
<path d="M0 0 C0.33 1.32 0.66 2.64 1 4 C0.01 4.33 -0.98 4.66 -2 5 C-2 5.99 -2 6.98 -2 8 C-2.99 8 -3.98 8 -5 8 C-5.33 8.99 -5.66 9.98 -6 11 C-7.32 10.67 -8.64 10.34 -10 10 C-6.7 6.7 -3.4 3.4 0 0 Z " fill="#EF8687" transform="translate(230,57)"/>
<path d="M0 0 C0.33 0.99 0.66 1.98 1 3 C0.07421875 4.82421875 0.07421875 4.82421875 -1.3125 6.6875 C-1.76238281 7.31011719 -2.21226562 7.93273437 -2.67578125 8.57421875 C-3.11277344 9.04472656 -3.54976563 9.51523437 -4 10 C-4.66 10 -5.32 10 -6 10 C-6.66 11.32 -7.32 12.64 -8 14 C-8.66 13.67 -9.32 13.34 -10 13 C-9.5875 12.484375 -9.175 11.96875 -8.75 11.4375 C-7.31652346 9.44087197 -6.1670947 7.52514755 -5 5.375 C-3 2 -3 2 0 0 Z " fill="#E94A4D" transform="translate(357,274)"/>
<path d="M0 0 C0.33 0.66 0.66 1.32 1 2 C1.66 2 2.32 2 3 2 C3 2.66 3 3.32 3 4 C3.66 4 4.32 4 5 4 C5 4.66 5 5.32 5 6 C5.66 6 6.32 6 7 6 C7 6.66 7 7.32 7 8 C7.99 8.33 8.98 8.66 10 9 C10 9.66 10 10.32 10 11 C10.66 11 11.32 11 12 11 C12 11.66 12 12.32 12 13 C10.68 12.67 9.36 12.34 8 12 C8 11.34 8 10.68 8 10 C7.34 10 6.68 10 6 10 C6 9.34 6 8.68 6 8 C5.34 8 4.68 8 4 8 C4 7.34 4 6.68 4 6 C3.34 6 2.68 6 2 6 C2 5.34 2 4.68 2 4 C1.34 4 0.68 4 0 4 C0 2.68 0 1.36 0 0 Z " fill="#E67174" transform="translate(430,218)"/>
<path d="M0 0 C0 0.66 0 1.32 0 2 C-0.66 2 -1.32 2 -2 2 C-2.226875 2.556875 -2.45375 3.11375 -2.6875 3.6875 C-4.37550036 6.66159588 -6.46676517 8.72008865 -9 11 C-9.66 11 -10.32 11 -11 11 C-11.33 11.66 -11.66 12.32 -12 13 C-11.38722388 10.03824877 -10.74627478 8.61941217 -9 6 C-8.01 6 -7.02 6 -6 6 C-5.8453125 5.071875 -5.8453125 5.071875 -5.6875 4.125 C-4.72223986 1.14146864 -3.16449578 0 0 0 Z " fill="#E88680" transform="translate(265,446)"/>
<path d="M0 0 C0.99 0.33 1.98 0.66 3 1 C2.236875 1.7425 1.47375 2.485 0.6875 3.25 C-1.4393702 5.4263323 -3.2559956 7.52167796 -5 10 C-6.32 9.67 -7.64 9.34 -9 9 C-8.34 9 -7.68 9 -7 9 C-6.62875 7.5459375 -6.62875 7.5459375 -6.25 6.0625 C-5.8375 5.051875 -5.425 4.04125 -5 3 C-2.9375 2.25 -2.9375 2.25 -1 2 C-0.67 1.34 -0.34 0.68 0 0 Z " fill="#F01E1C" transform="translate(225,65)"/>
<path d="M0 0 C1.32 0 2.64 0 4 0 C4 0.66 4 1.32 4 2 C4.66 2 5.32 2 6 2 C6 2.66 6 3.32 6 4 C7.32 4 8.64 4 10 4 C10 5.98 10 7.96 10 10 C7.95880212 8.38405168 5.95927063 6.7143618 4 5 C4 4.34 4 3.68 4 3 C3.34 3 2.68 3 2 3 C2 2.34 2 1.68 2 1 C1.34 0.67 0.68 0.34 0 0 Z " fill="#E97170" transform="translate(205,417)"/>
<path d="M0 0 C0.66 0 1.32 0 2 0 C2.33 0.66 2.66 1.32 3 2 C3.99 2.33 4.98 2.66 6 3 C6 2.01 6 1.02 6 0 C6.99 0 7.98 0 9 0 C9 0.66 9 1.32 9 2 C8.34 2 7.68 2 7 2 C6.7525 2.639375 6.505 3.27875 6.25 3.9375 C5 6 5 6 2.875 6.75 C1.946875 6.87375 1.946875 6.87375 1 7 C0.67 4.69 0.34 2.38 0 0 Z " fill="#EB5451" transform="translate(422,280)"/>
<path d="M0 0 C0.99 0 1.98 0 3 0 C3 0.66 3 1.32 3 2 C2.34 2 1.68 2 1 2 C1 2.66 1 3.32 1 4 C0.34 4 -0.32 4 -1 4 C-1.2475 4.598125 -1.495 5.19625 -1.75 5.8125 C-3.16370012 8.28647521 -4.65055383 9.43370255 -7 11 C-7.33 10.01 -7.66 9.02 -8 8 C-7.01 8 -6.02 8 -5 8 C-4.896875 7.360625 -4.79375 6.72125 -4.6875 6.0625 C-4.460625 5.381875 -4.23375 4.70125 -4 4 C-3.01 3.67 -2.02 3.34 -1 3 C-0.67 2.01 -0.34 1.02 0 0 Z " fill="#EA7E7E" transform="translate(305,403)"/>
<path d="M0 0 C0.625 1.8125 0.625 1.8125 1 4 C0.01 5.485 0.01 5.485 -1 7 C-1.99 7 -2.98 7 -4 7 C-4 7.99 -4 8.98 -4 10 C-5.32 10.33 -6.64 10.66 -8 11 C-8 10.34 -8 9.68 -8 9 C-7.34 9 -6.68 9 -6 9 C-5.9071875 8.1646875 -5.9071875 8.1646875 -5.8125 7.3125 C-4.66626128 4.05012827 -2.50609803 2.31332126 0 0 Z " fill="#E84A4B" transform="translate(378,253)"/>
<path d="M0 0 C0.33 0.99 0.66 1.98 1 3 C0.01 4.485 0.01 4.485 -1 6 C-1.66 6 -2.32 6 -3 6 C-3.33 6.99 -3.66 7.98 -4 9 C-7.0625 10.1875 -7.0625 10.1875 -10 11 C-6.79239749 7.19364503 -3.59253891 3.45436433 0 0 Z " fill="#EE8E88" transform="translate(219,68)"/>
<path d="M0 0 C6.70212766 1.93617021 6.70212766 1.93617021 9 5 C9 5.66 9 6.32 9 7 C9.66 7 10.32 7 11 7 C11 7.99 11 8.98 11 10 C10.34 10 9.68 10 9 10 C9 9.34 9 8.68 9 8 C8.34 8 7.68 8 7 8 C7 7.34 7 6.68 7 6 C6.34 6 5.68 6 5 6 C5 5.34 5 4.68 5 4 C4.34 4 3.68 4 3 4 C3 3.34 3 2.68 3 2 C2.01 1.67 1.02 1.34 0 1 C0 0.67 0 0.34 0 0 Z " fill="#E66F71" transform="translate(75,287)"/>
<path d="M0 0 C0.99 0.33 1.98 0.66 3 1 C1.88121617 2.17262904 0.75476949 3.33795138 -0.375 4.5 C-1.00148438 5.1496875 -1.62796875 5.799375 -2.2734375 6.46875 C-4 8 -4 8 -6 8 C-6 8.66 -6 9.32 -6 10 C-6.66 10 -7.32 10 -8 10 C-7.34 8.35 -6.68 6.7 -6 5 C-5.01 5 -4.02 5 -3 5 C-2.814375 4.0409375 -2.814375 4.0409375 -2.625 3.0625 C-2.41875 2.381875 -2.2125 1.70125 -2 1 C-1.34 0.67 -0.68 0.34 0 0 Z " fill="#E78B8B" transform="translate(454,255)"/>
<path d="M0 0 C0 4.68969985 -2.83164129 7.69066046 -6 11 C-8.875 12 -8.875 12 -11 12 C-9.625 10 -9.625 10 -8 8 C-7.34 8 -6.68 8 -6 8 C-6 7.34 -6 6.68 -6 6 C-5.34 6 -4.68 6 -4 6 C-3.71125 5.38125 -3.4225 4.7625 -3.125 4.125 C-2 2 -2 2 0 0 Z " fill="#EE878B" transform="translate(60,227)"/>
<path d="M0 0 C0.33 0.66 0.66 1.32 1 2 C-0.15093722 5.45281166 -1.3205993 6.38082163 -4.0625 8.6875 C-4.79597656 9.31011719 -5.52945313 9.93273437 -6.28515625 10.57421875 C-6.85105469 11.04472656 -7.41695312 11.51523438 -8 12 C-8.66 11.67 -9.32 11.34 -10 11 C-8.625 9 -8.625 9 -7 7 C-6.34 7 -5.68 7 -5 7 C-4.731875 6.401875 -4.46375 5.80375 -4.1875 5.1875 C-3.01506533 3.02775192 -1.80630718 1.64209744 0 0 Z " fill="#EC7675" transform="translate(199,88)"/>
<path d="M0 0 C0 0.99 0 1.98 0 3 C-1.65532623 4.01866229 -3.32260138 5.01810813 -5 6 C-5.33 6.99 -5.66 7.98 -6 9 C-8 8 -8 8 -9 5 C-3.375 0 -3.375 0 0 0 Z " fill="#EC1917" transform="translate(265,443)"/>
<path d="M0 0 C4.13621084 3.3810038 7.81316569 6.66590534 11 11 C5.84563204 9.63560848 2.93351599 6.27426385 0 2 C0 1.34 0 0.68 0 0 Z " fill="#E26067" transform="translate(137,269)"/>
<path d="M0 0 C2.475 0.495 2.475 0.495 5 1 C5.66 2.98 6.32 4.96 7 7 C4.20171644 6.61402985 3.1794116 6.19863427 1.25 4.0625 C0 2 0 2 0 0 Z " fill="#E44042" transform="translate(189,399)"/>
<path d="M0 0 C5.29158974 1.40071493 7.77478044 4.85487245 11 9 C7.40303663 8.42703238 5.74677205 7.10347171 3.25 4.5 C2.63640625 3.8709375 2.0228125 3.241875 1.390625 2.59375 C0 1 0 1 0 0 Z " fill="#DE5357" transform="translate(363,231)"/>
<path d="M0 0 C0.33 0 0.66 0 1 0 C1 3.63 1 7.26 1 11 C0.34 11 -0.32 11 -1 11 C-1.66 12.32 -2.32 13.64 -3 15 C-3.33 15 -3.66 15 -4 15 C-4 13.35 -4 11.7 -4 10 C-2.68 9.67 -1.36 9.34 0 9 C0 6.03 0 3.06 0 0 Z " fill="#EA1714" transform="translate(154,200)"/>
<path d="M0 0 C1.875 0.1875 1.875 0.1875 4 1 C5.25 3.5625 5.25 3.5625 6 6 C2.25 9 2.25 9 0 9 C0.556875 7.88625 0.556875 7.88625 1.125 6.75 C2.29515863 4.05716353 2.29515863 4.05716353 1.125 1.6875 C0.75375 1.130625 0.3825 0.57375 0 0 Z " fill="#F1211F" transform="translate(144,279)"/>
<path d="M0 0 C0.99 0.33 1.98 0.66 3 1 C1.625 2.5 1.625 2.5 0 4 C-0.66 4 -1.32 4 -2 4 C-2 4.66 -2 5.32 -2 6 C-2.66 6 -3.32 6 -4 6 C-4 6.66 -4 7.32 -4 8 C-4.66 8 -5.32 8 -6 8 C-5.66354211 4.85972637 -4.94763914 3.94901705 -2.625 1.6875 C-1.75875 1.130625 -0.8925 0.57375 0 0 Z " fill="#E97E7D" transform="translate(271,438)"/>
<path d="M0 0 C3.23490776 0.55774272 4.97855006 1.37211508 7 4 C7 4.99 7 5.98 7 7 C5.68 6.67 4.36 6.34 3 6 C3 5.34 3 4.68 3 4 C2.34 4 1.68 4 1 4 C0.67 2.68 0.34 1.36 0 0 Z " fill="#E54447" transform="translate(230,440)"/>
<path d="M0 0 C0.763125 0.804375 1.52625 1.60875 2.3125 2.4375 C4.79430898 5.16799024 4.79430898 5.16799024 8 6 C7.67 7.32 7.34 8.64 7 10 C6.5875 9.54625 6.175 9.0925 5.75 8.625 C3.93591905 6.94049626 2.24714373 6.00734029 0 5 C0 3.35 0 1.7 0 0 Z " fill="#EC2A2A" transform="translate(398,188)"/>
<path d="M0 0 C0.33 0 0.66 0 1 0 C1.04898437 0.60328125 1.09796875 1.2065625 1.1484375 1.828125 C1.22320312 2.62734375 1.29796875 3.4265625 1.375 4.25 C1.44460938 5.03890625 1.51421875 5.8278125 1.5859375 6.640625 C2.01507113 9.085877 2.78600638 10.84836903 4 13 C4.66 13 5.32 13 6 13 C6 13.66 6 14.32 6 15 C5.01 14.67 4.02 14.34 3 14 C3 13.34 3 12.68 3 12 C2.01 11.67 1.02 11.34 0 11 C0 7.37 0 3.74 0 0 Z " fill="#E77C7E" transform="translate(399,179)"/>
<path d="M0 0 C2.64 0.66 5.28 1.32 8 2 C7.67 2.99 7.34 3.98 7 5 C7.66 5 8.32 5 9 5 C9 5.66 9 6.32 9 7 C7.68 6.67 6.36 6.34 5 6 C5 5.34 5 4.68 5 4 C4.34 4 3.68 4 3 4 C3 3.34 3 2.68 3 2 C2.01 1.67 1.02 1.34 0 1 C0 0.67 0 0.34 0 0 Z " fill="#E66765" transform="translate(215,427)"/>
<path d="M0 0 C0.3403125 0.9590625 0.3403125 0.9590625 0.6875 1.9375 C1.85250896 4.27193661 1.85250896 4.27193661 4.625 4.75 C5.40875 4.8325 6.1925 4.915 7 5 C7 5.99 7 6.98 7 8 C6.67 7.34 6.34 6.68 6 6 C2.97065509 5.34227572 2.97065509 5.34227572 0 5 C-0.33 4.01 -0.66 3.02 -1 2 C-0.67 1.34 -0.34 0.68 0 0 Z " fill="#EE3E3F" transform="translate(116,249)"/>
<path d="M0 0 C-1.25 1.5625 -1.25 1.5625 -3 3 C-5.1875 2.6875 -5.1875 2.6875 -7 2 C-7 1.01 -7 0.02 -7 -1 C-3.51418144 -2.2020064 -3.32007656 -2.21338437 0 0 Z " fill="#ED1715" transform="translate(272,438)"/>
<path d="M0 0 C0.33 0.99 0.66 1.98 1 3 C-1.31 4.98 -3.62 6.96 -6 9 C-6.66 8.67 -7.32 8.34 -8 8 C-3.375 2.25 -3.375 2.25 0 0 Z " fill="#E37879" transform="translate(277,354)"/>
<path d="M0 0 C0.33 0.99 0.66 1.98 1 3 C-1.5958956 5.87402727 -3.21369298 7.24432948 -7 8 C-6.02133662 6.85373678 -5.04205413 5.70800212 -4.0625 4.5625 C-3.51722656 3.92441406 -2.97195313 3.28632813 -2.41015625 2.62890625 C-1.63204305 1.73008851 -0.84063472 0.84063472 0 0 Z " fill="#E35E60" transform="translate(285,346)"/>
<path d="M0 0 C0.33 0.66 0.66 1.32 1 2 C1.99 2.33 2.98 2.66 4 3 C5.1875 6.0625 5.1875 6.0625 6 9 C5.01 9 4.02 9 3 9 C0.50022457 5.66696609 0 4.26696398 0 0 Z " fill="#E95959" transform="translate(406,194)"/>
<path d="M0 0 C0 2.62113708 -0.31292445 4.50935112 -1 7 C-2.32 6.67 -3.64 6.34 -5 6 C-2.25 1.125 -2.25 1.125 0 0 Z " fill="#ED1D1B" transform="translate(433,273)"/>
<path d="M0 0 C0.66 0 1.32 0 2 0 C2 2.64 2 5.28 2 8 C1.34 8 0.68 8 0 8 C0 7.34 0 6.68 0 6 C-0.66 6 -1.32 6 -2 6 C-2 4.68 -2 3.36 -2 2 C-1.34 2 -0.68 2 0 2 C0 1.34 0 0.68 0 0 Z " fill="#E38281" transform="translate(41,246)"/>
<path d="M0 0 C0.66 0 1.32 0 2 0 C1.67 1.65 1.34 3.3 1 5 C-1.31 5.66 -3.62 6.32 -6 7 C-5.34 6.01 -4.68 5.02 -4 4 C-3.34 4 -2.68 4 -2 4 C-2 3.34 -2 2.68 -2 2 C-1.34 2 -0.68 2 0 2 C0 1.34 0 0.68 0 0 Z " fill="#EE7F81" transform="translate(67,220)"/>
<path d="M0 0 C3.92300495 2.35380297 4.83857315 4.64464931 6 9 C4.68 8.67 3.36 8.34 2 8 C1.34 5.36 0.68 2.72 0 0 Z " fill="#EB333A" transform="translate(304,93)"/>
<path d="M0 0 C2.31 0.66 4.62 1.32 7 2 C7 2.66 7 3.32 7 4 C7.66 4 8.32 4 9 4 C9 4.66 9 5.32 9 6 C7.68 6 6.36 6 5 6 C4.67 5.34 4.34 4.68 4 4 C1.98330173 2.86649466 1.98330173 2.86649466 0 2 C0 1.34 0 0.68 0 0 Z " fill="#EA4C4D" transform="translate(288,80)"/>
<path d="M0 0 C0.66 0.66 1.32 1.32 2 2 C1.625 4.625 1.625 4.625 1 7 C-0.98 5.35 -2.96 3.7 -5 2 C-4.34 1.67 -3.68 1.34 -3 1 C-2.01 1.33 -1.02 1.66 0 2 C0 1.34 0 0.68 0 0 Z " fill="#F21719" transform="translate(245,448)"/>
<path d="M0 0 C0.33 0.66 0.66 1.32 1 2 C-2.44615385 6.8 -2.44615385 6.8 -5.25 7.8125 C-6.11625 7.9053125 -6.11625 7.9053125 -7 8 C-7 7.34 -7 6.68 -7 6 C-5.46875 4.4921875 -5.46875 4.4921875 -3.5 2.875 C-2.8503125 2.33617187 -2.200625 1.79734375 -1.53125 1.2421875 C-1.0259375 0.83226562 -0.520625 0.42234375 0 0 Z " fill="#E26E6F" transform="translate(350,281)"/>
<path d="M0 0 C0.66 0 1.32 0 2 0 C2 1.98 2 3.96 2 6 C0.02 6.99 0.02 6.99 -2 8 C-2.33 7.01 -2.66 6.02 -3 5 C-2.01 5 -1.02 5 0 5 C-0.33 4.01 -0.66 3.02 -1 2 C-0.67 1.34 -0.34 0.68 0 0 Z " fill="#ED1F24" transform="translate(456,247)"/>
<path d="M0 0 C0.99 0.33 1.98 0.66 3 1 C3 1.66 3 2.32 3 3 C3.66 3 4.32 3 5 3 C5 3.66 5 4.32 5 5 C5.66 5 6.32 5 7 5 C7 5.66 7 6.32 7 7 C5.68 6.67 4.36 6.34 3 6 C3 5.34 3 4.68 3 4 C2.34 4 1.68 4 1 4 C0.67 2.68 0.34 1.36 0 0 Z " fill="#E56D71" transform="translate(275,64)"/>
<path d="M0 0 C0.99 0.33 1.98 0.66 3 1 C-0.465 3.97 -0.465 3.97 -4 7 C-3.04065919 3.16263678 -2.76390737 2.40339772 0 0 Z " fill="#E26666" transform="translate(244,121)"/>
<path d="M0 0 C0 1.65 0 3.3 0 5 C-2.97 4.505 -2.97 4.505 -6 4 C-2.25 0 -2.25 0 0 0 Z " fill="#F02220" transform="translate(254,114)"/>
<path d="M0 0 C2 0 2 0 4.625 2.375 C7 5 7 5 7 7 C5.68 6.67 4.36 6.34 3 6 C3 5.34 3 4.68 3 4 C2.01 3.67 1.02 3.34 0 3 C0 2.01 0 1.02 0 0 Z " fill="#E4656A" transform="translate(297,86)"/>
<path d="M0 0 C0 0.66 0 1.32 0 2 C-0.99 2 -1.98 2 -3 2 C-3.33 2.99 -3.66 3.98 -4 5 C-5.32 4.67 -6.64 4.34 -8 4 C-5.57415142 1.34311822 -3.76063134 0 0 0 Z " fill="#ED5556" transform="translate(228,63)"/>
<path d="M0 0 C0.33 0.99 0.66 1.98 1 3 C-1 6 -1 6 -3.625 6.6875 C-4.800625 6.8421875 -4.800625 6.8421875 -6 7 C-4.02 4.69 -2.04 2.38 0 0 Z " fill="#ED6D71" transform="translate(245,42)"/>
<path d="M0 0 C1.32 0 2.64 0 4 0 C4 0.66 4 1.32 4 2 C4.66 2 5.32 2 6 2 C6 2.66 6 3.32 6 4 C3.36 3.67 0.72 3.34 -2 3 C-1.34 2.67 -0.68 2.34 0 2 C0 1.34 0 0.68 0 0 Z " fill="#E87B7D" transform="translate(248,39)"/>
<path d="M0 0 C2.9375 0.75 2.9375 0.75 6 2 C6.875 4.125 6.875 4.125 7 6 C6.34 6 5.68 6 5 6 C5 5.34 5 4.68 5 4 C4.34 4 3.68 4 3 4 C3 3.34 3 2.68 3 2 C2.01 1.67 1.02 1.34 0 1 C0 0.67 0 0.34 0 0 Z " fill="#E8787B" transform="translate(60,272)"/>
<path d="M0 0 C0.33 1.32 0.66 2.64 1 4 C-0.98 4.99 -2.96 5.98 -5 7 C-3.70700306 4.11562221 -2.34058637 2.12780579 0 0 Z " fill="#ED6C6F" transform="translate(48,239)"/>
<path d="M0 0 C0.99 0.495 0.99 0.495 2 1 C2 1.66 2 2.32 2 3 C2.66 3 3.32 3 4 3 C4 3.66 4 4.32 4 5 C4.66 5 5.32 5 6 5 C6 5.66 6 6.32 6 7 C4.125 6.875 4.125 6.875 2 6 C0.75 2.9375 0.75 2.9375 0 0 Z " fill="#E97779" transform="translate(259,47)"/>
</svg>
